<svg width="779" height="512" viewBox="0 0 779 512" fill="none" xmlns="http://www.w3.org/2000/svg">
<path d="M663.481 376.232C663.454 376.218 663.426 376.197 663.398 376.183C663.408 376.218 663.415 376.256 663.426 376.291C663.889 376.639 663.909 376.622 663.481 376.232Z" fill="black"/>
<path d="M763.174 357.21C750.695 353.347 737.749 359.148 725.482 361.925C712.94 364.761 699.135 364.034 686.715 360.436C672.69 356.371 674.482 347.946 668.187 336.806C669.408 337.627 670.825 338.289 671.973 339.294C673.028 334.718 670.56 329.853 667.915 325.781C669.495 326.871 671.789 327.483 673.344 328.545C672.478 325.59 671.945 321.717 670.327 318.832C671.493 319.535 673.358 320.102 674.5 320.854C672.478 317.798 671.928 313.821 671.716 309.672C679.716 308.52 685.093 305.576 693.295 306.655C701.473 307.73 731.322 313.577 728.482 295.7C735.842 293.17 739.747 296.688 746.776 291.253C744.313 291.489 741.755 290.992 739.308 291.301C741.09 290.978 745.962 288.319 746.989 284.877C744.528 285.597 738.007 285.417 737.269 285.688C737.902 276.073 725.848 270.244 720.516 264.108C707.713 249.367 693.755 235.029 672.443 232.217C672.067 232.169 671.576 232.109 671.037 232.043C670.999 227.164 670.428 221.742 670.153 216.039C669.109 194.455 667.929 172.744 671.333 151.296C673.313 138.81 693.121 63.5611 663.819 69.1883C666.635 54.5687 650.818 56.0964 643.326 62.2421C624.353 77.8083 614.657 105.468 596.631 122.819C590.634 128.589 584.642 134.178 578.733 139.868C578.858 138.973 578.983 138.086 579.105 137.181C582.373 113.402 586.41 89.8144 592.26 66.2372C595.315 53.9318 606.364 30.0205 598.823 17.6594C596.102 13.2015 585.474 7.62303 581.492 4.5258C577.003 1.03533 581.21 -0.850824 573.582 0.374147C571.066 0.777831 566.205 4.56063 564.468 6.45029C558.489 12.9614 557.835 22.013 556.245 30.5634C551.223 57.5685 533.607 83.2754 519.771 106.679C511.652 120.418 501.807 132.814 493.103 146.205C490.222 150.638 487.016 156.568 483.342 161.573C473.1 161.688 462.876 162.102 452.69 162.993C426.471 165.279 396.842 168.529 370.724 164.851C357.646 163.01 311.877 151.501 305.453 163.845C299.401 155.799 268.06 160.128 258.796 161.099C245.046 162.537 230.061 164.291 218.65 172.636C209.905 169.9 173.361 175.434 163.603 184.172C163.245 183.727 162.914 183.323 162.625 182.978C153.783 172.343 145.121 161.694 135.088 151.703C117.465 134.157 105.344 111.753 91.5805 90.8724C82.6995 77.4012 67.9511 24.1358 51.8038 21.1813C51.9325 22.7821 52.2492 24.7378 52.7364 23.2031C61.1477 38.122 66.3608 55.4317 74.9008 70.4306C86.538 90.8724 100.295 109.877 112.527 129.828C121.408 144.315 131.364 159.06 141.658 172.392C143.492 174.769 146.227 178.433 149.311 182.258C132.551 165.561 108.281 146.288 102.734 142.422C78.2659 125.37 54.3616 105.534 32.9664 84.7614C24.4716 76.5137 11.3936 54.0919 0 53.9701C15.1521 79.3291 43.2429 97.3035 64.8852 117.676C87.8604 139.3 111.389 162.164 135.669 181.938C143.962 188.693 151.169 194.605 158.258 201.684C158.282 207.774 160.189 213.603 163.447 221.287C167.724 231.379 169.331 240.27 174.979 249.527C175.578 250.508 176.211 251.42 176.824 252.37C171.987 261.07 168.792 276.842 166.986 282.514C165.047 288.608 164.254 298.153 160.986 303.401C158.021 308.162 152.53 309.352 150.289 315.341C135.92 313.963 101.339 307.497 94.4968 326.467C94.114 326.387 92.3461 325.11 93.5676 328.478C100.911 330.448 103.945 329.79 111.003 328.694C118.989 327.455 117.239 326.55 126.12 329.759C130.853 331.468 136.894 332.164 143.071 331.757C142.995 331.816 142.918 331.871 142.841 331.931C131.549 341.027 122.041 353.444 112.607 364.323C100.357 378.441 86.444 390.747 73.0563 403.985C61.1164 415.792 54.7513 415.013 39.474 418.737C32.6253 420.407 15.6915 430.732 18.6808 436.345C17.8108 437.442 18.1206 436.314 17.4489 437.463C32.587 457.49 37.7827 427.677 50.544 426.459C66.7818 440.817 91.8902 408.683 102.188 395.636C109.315 386.605 115.255 375.706 123.311 367.152C130.881 359.113 144.867 344.173 154.928 339.656C163.203 335.943 172.69 336.006 182.402 330.326C195.254 322.813 210.643 313.309 225.52 311.033C241.483 308.594 256.301 305.865 267.305 292.627C269.163 290.393 270.673 287.891 271.752 285.364C274.929 285.462 277.787 286.234 280.188 288.013C280.672 300.718 301.764 316.605 313.673 322.075C326.893 328.151 351.09 334.614 367.498 332.272C369.43 347.8 379.285 366.087 381.547 380.254C385.062 402.29 385.473 423.09 391.744 444.631C396.122 459.676 397.009 468.626 390.205 483.089C387.989 487.801 380.684 494.187 379.591 498.983C378.099 505.536 384.011 513.658 391.465 510.265C395.471 508.441 399.563 497.813 402.316 494.385C413.602 480.333 411.434 474.32 411.138 457.386C415.596 453.808 406.621 437.992 404.383 432.065C398.3 415.946 395.199 398.434 392.266 381.504C389.53 365.708 389.402 350.121 387.331 334.273C387.185 333.145 386.666 331.555 385.897 329.773C396.633 330.319 409.756 333.302 417.659 334.701C430.135 336.911 443.206 340.255 455.828 339.489C455.797 337.304 457.13 335.059 457.092 333.062C465.385 330.18 479.374 330.354 487.66 332.926C487.458 332.286 486.63 326.61 487.859 329.763C496.472 325.785 512.633 330.365 521.733 331.764C522.335 330.89 523.567 328.51 523.943 327.455C524.041 327.327 524.089 327.246 524.128 327.177C533.83 326.589 560.452 334.659 561.475 325.367C568.574 322.308 591.992 332.397 594.438 322.072C604.509 322.086 612.43 321.021 621.746 323.001C621.488 321.052 622.957 318.442 623.006 317.676C630.864 317.676 637.451 315.7 644.791 317.534C645.441 315.226 646.98 312.349 647.178 309.982C648.626 309.345 650.157 309.011 651.74 308.858C649.771 332.564 646.635 367.458 663.409 376.179C662.121 371.645 661.279 364.953 664.759 361.622C665.041 368.481 669.969 371.836 675.558 374.669C676.33 373.002 677.106 372.661 677.941 371.405C685.232 378.045 692.947 377.71 701.042 381.538C702.222 380.613 701.418 380.355 702.357 379.336C706.874 382.04 712.881 382.44 718.407 382.308C718.922 381.525 719.476 380.383 719.945 379.645C722.636 381.385 732.411 384.918 735.668 382.537C739.897 379.447 736.58 375.368 735.251 370.576C742.82 370.743 753.194 369.842 759.555 366.181C768.297 372.115 768.607 373.708 778.866 371.342C780.394 364.573 768.475 358.849 763.174 357.21ZM171.51 314.308C174.315 306.004 175.23 295.171 176.89 288.253C179.103 279.02 181.477 270.021 182.649 260.778C191.642 272.707 201.929 282.525 213.152 292.404C213.41 292.634 213.688 292.819 213.956 293.024C200.335 301.359 185.684 307.302 171.51 314.308ZM521.907 327.563C522.353 327.393 522.913 327.281 523.553 327.215C523.045 327.448 522.339 327.758 521.907 327.563ZM523.501 162.377C525.913 155.524 527.816 148.265 530.395 141.935C539.523 119.53 551.658 98.5284 560.115 75.9186C564.186 65.0366 568.54 39.8864 583.267 38.6684C583.135 48.3777 577.111 59.4651 575.444 69.5746C572.911 84.9633 571.258 100.648 569.124 116.106C567.412 128.53 566.521 140.599 565.961 152.664C565.06 153.61 564.137 154.519 563.243 155.483C560.602 158.329 557.491 161.106 554.233 163.89C544.023 163.368 533.771 162.819 523.501 162.377ZM591.129 226.475C604.669 213.042 619.48 202.473 606.517 181.395C602.237 174.435 595.921 170.433 588.752 168.049C599.665 152.73 611.247 137.943 622.724 122.92C629.329 114.276 636.178 104.556 645.615 100.108C652.092 97.0564 659.65 100.046 660.541 89.2785C666.903 91.1403 658.38 106.818 657.301 112.981C654.472 129.156 655.958 146.379 655.958 162.749C655.958 180.744 656.153 198.68 654.858 216.557C654.545 220.872 653.978 225.511 653.463 230.223C629.238 227.892 591.713 224.77 591.129 226.475Z" fill="black"/>
</svg>
