<svg width="1216" height="323" viewBox="0 0 1216 323" fill="none" xmlns="http://www.w3.org/2000/svg">
<path d="M93.4441 183.033C93.4288 183.115 93.4135 183.197 93.3982 183.279C92.8224 186.359 92.2127 189.619 91.0233 191.754C90.3018 193.05 89.3156 193.927 88.3252 194.807C87.0146 195.973 85.6966 197.145 84.9749 199.301C84.0854 199.205 83.059 199.072 81.9312 198.924C72.7573 197.728 56.8746 195.656 53.4297 206.332C53.3972 206.325 53.3471 206.3 53.2877 206.271C52.9513 206.106 52.3173 205.794 52.9043 207.604C56.8276 208.78 58.5756 208.474 62.1233 207.852C62.3299 207.815 62.5426 207.778 62.7622 207.74C63.672 207.582 64.3583 207.433 64.9153 207.312C67.1231 206.832 67.2998 206.794 71.3096 208.413C73.9856 209.493 77.4014 209.933 80.894 209.676C80.8723 209.694 80.8506 209.712 80.8289 209.731C80.8168 209.741 80.8047 209.751 80.7926 209.761C80.7831 209.769 80.7736 209.777 80.7641 209.785C75.7247 214.323 71.3141 220.168 67.0564 225.81C65.9195 227.317 64.7935 228.809 63.6693 230.258C58.7973 236.535 53.46 242.244 48.088 247.991C45.8232 250.414 43.5519 252.844 41.3071 255.325C35.8154 261.395 32.4096 262.202 26.6804 263.558C25.3666 263.869 23.9307 264.209 22.3194 264.648C18.4471 265.704 8.87257 272.23 10.5628 275.777C10.3195 276.12 10.2394 276.119 10.1746 276.118C10.1084 276.117 10.0582 276.117 9.86621 276.483C15.1814 284.344 18.3287 280.057 21.6788 275.494C23.7235 272.709 25.8437 269.821 28.5784 269.529C37.6772 278.522 51.7019 258.656 57.6197 250.273L57.7782 250.048C59.3836 247.775 60.8825 245.313 62.393 242.833C64.6738 239.088 66.9815 235.298 69.7217 232.046L69.8949 231.84C74.212 226.714 81.9852 217.485 87.5977 214.668C89.5497 213.689 91.6209 213.125 93.7708 212.54C96.7743 211.723 99.9316 210.864 103.132 208.772C103.622 208.451 104.118 208.126 104.621 207.796C111.57 203.234 119.667 197.919 127.511 196.578C136.537 195.036 144.915 193.312 151.137 184.945C151.59 184.335 152.007 183.694 152.384 183.033H118.733C119.323 183.624 119.918 184.214 120.518 184.804C120.617 184.903 120.721 184.988 120.826 185.073C120.875 185.114 120.924 185.154 120.973 185.196C115.651 188.836 110.051 191.754 104.454 194.671L104.453 194.672C101.951 195.976 99.4493 197.28 96.9735 198.648C97.9633 195.372 98.5369 191.474 99.0565 187.943C99.317 186.173 99.564 184.494 99.8431 183.033H93.4441Z" fill="#FF0000"/>
<path fill-rule="evenodd" clip-rule="evenodd" d="M158.513 183.033C159.671 190.877 170.898 200.242 177.353 203.557C184.828 207.397 198.509 211.481 207.787 210.001C208.367 215.218 210.214 220.927 212.008 226.476C213.59 231.367 215.131 236.133 215.73 240.327C216.404 245.049 216.876 249.682 217.344 254.273C218.256 263.223 219.152 272.016 221.495 281.014C223.971 290.522 224.472 296.179 220.626 305.32C220.085 306.604 219.011 308.084 217.913 309.596C216.464 311.591 214.976 313.641 214.624 315.365C213.78 319.507 217.123 324.64 221.338 322.496C222.803 321.75 224.288 318.677 225.576 316.013C226.279 314.558 226.923 313.225 227.473 312.46C232.95 304.837 232.823 300.957 232.571 293.245C232.53 291.971 232.485 290.592 232.461 289.075C234.428 287.31 231.769 280.833 229.905 276.294C229.381 275.018 228.92 273.894 228.642 273.072C225.202 262.884 223.449 251.817 221.791 241.116C220.903 235.385 220.5 229.697 220.097 223.996C219.798 219.767 219.499 215.531 219 211.266C218.918 210.553 218.625 209.548 218.19 208.422C222.893 208.689 228.406 209.881 232.729 210.815C233.986 211.087 235.142 211.337 236.148 211.536C237.574 211.819 239.014 212.13 240.462 212.444C246.18 213.681 252.035 214.949 257.729 214.563C257.72 213.859 257.911 213.146 258.098 212.449C258.278 211.777 258.454 211.12 258.444 210.5C263.133 208.679 271.042 208.789 275.727 210.415C275.613 210.01 275.145 206.423 275.84 208.415C279.719 206.412 286.308 207.842 291.429 208.954C292.735 209.237 293.946 209.5 294.993 209.68C295.333 209.128 296.029 207.623 296.242 206.957C296.297 206.876 296.325 206.825 296.346 206.781C298.064 206.665 300.72 207.085 303.576 207.537C309.84 208.528 317.066 209.671 317.463 205.637C318.999 204.897 321.887 205.375 324.944 205.88C329.875 206.695 335.247 207.583 336.1 203.555C337.638 203.557 339.087 203.51 340.487 203.464C344.27 203.34 347.696 203.228 351.54 204.142C351.443 203.316 351.784 202.302 352.028 201.578C352.147 201.222 352.244 200.936 352.253 200.777C353.811 200.777 355.28 200.623 356.711 200.474C359.36 200.197 361.875 199.934 364.57 200.686C364.706 200.149 364.909 199.564 365.118 198.963L365.118 198.962C365.476 197.932 365.849 196.858 365.92 195.914C366.739 195.511 367.604 195.3 368.5 195.203L368.456 195.794C367.341 210.759 365.737 232.312 375.097 237.751C374.369 234.885 373.893 230.656 375.86 228.551C376.02 232.886 378.806 235.006 381.966 236.797C382.233 236.154 382.5 235.823 382.775 235.483C382.951 235.265 383.13 235.043 383.314 234.734C385.938 237.405 388.659 238.29 391.472 239.205C393.077 239.727 394.712 240.259 396.375 241.138C396.734 240.824 396.768 240.631 396.806 240.421C396.838 240.239 396.873 240.044 397.119 239.746C399.673 241.455 403.069 241.708 406.194 241.625C406.349 241.36 406.511 241.031 406.668 240.711C406.805 240.432 406.94 240.159 407.063 239.942C408.584 241.042 414.111 243.274 415.953 241.77C417.769 240.286 417.124 238.442 416.379 236.314C416.143 235.641 415.898 234.939 415.717 234.21C419.997 234.316 425.862 233.746 429.459 231.432C430.081 231.904 430.627 232.333 431.119 232.718C434.535 235.396 435.307 236.002 440.377 234.694C441.241 230.416 434.502 226.798 431.505 225.762C426.066 223.88 420.471 225.628 415.015 227.331C413.393 227.838 411.783 228.34 410.194 228.742C403.102 230.535 395.297 230.075 388.274 227.801C382.622 225.97 381.514 222.739 380.054 218.484C379.466 216.769 378.821 214.889 377.799 212.867C378.043 213.051 378.301 213.222 378.561 213.394C379.037 213.709 379.52 214.029 379.939 214.439C380.536 211.547 379.141 208.472 377.645 205.899C378.097 206.247 378.651 206.518 379.203 206.788C379.743 207.051 380.28 207.314 380.715 207.645C380.57 207.094 380.442 206.493 380.31 205.872C379.994 204.388 379.654 202.792 379.009 201.507C379.317 201.715 379.713 201.904 380.112 202.095C380.566 202.312 381.025 202.532 381.368 202.785C380.225 200.854 379.914 198.34 379.794 195.718C381.336 195.47 382.705 195.09 384.025 194.724C386.576 194.017 388.938 193.362 391.995 193.811C392.354 193.864 392.787 193.935 393.28 194.015C399.129 194.974 413.371 197.308 411.89 186.887C413.564 186.244 414.922 186.219 416.206 186.196C418.114 186.161 419.858 186.13 422.234 184.076C421.57 184.148 420.894 184.113 420.219 184.079C419.477 184.042 418.735 184.005 418.011 184.107C418.462 184.016 419.263 183.628 420.062 183.033H158.513ZM295.091 207.025C295.343 206.917 295.66 206.847 296.022 206.805C295.734 206.953 295.335 207.148 295.091 207.025Z" fill="#FF0000"/>
<path d="M375.115 237.769C375.123 237.775 375.13 237.78 375.138 237.785C375.38 238.031 375.369 238.042 375.107 237.822C375.104 237.811 375.101 237.799 375.099 237.788C375.097 237.776 375.094 237.765 375.091 237.754C375.099 237.758 375.107 237.764 375.115 237.769Z" fill="#FF0000"/>
<path fill-rule="evenodd" clip-rule="evenodd" d="M92.4556 139.967C93.3201 142.26 93.9918 144.456 94.6478 146.601C95.8031 150.378 96.9096 153.995 98.9348 157.705C99.1498 158.099 99.3728 158.476 99.5957 158.852L99.5965 158.853C99.7241 159.068 99.8517 159.284 99.9777 159.502C97.9621 163.554 96.4508 170.034 95.3865 174.597C95.0067 176.226 94.6837 177.611 94.4151 178.554C94.0434 179.86 93.7462 181.417 93.4436 183.033H99.8426C99.8987 182.74 99.956 182.455 100.015 182.18C100.198 181.325 100.384 180.473 100.569 179.622L100.57 179.619C101.646 174.672 102.706 169.8 103.271 164.816C107.875 171.643 113.079 177.375 118.732 183.033H152.384C152.879 182.164 153.304 181.262 153.651 180.355C155.447 180.417 157.063 180.905 158.42 182.029C158.432 182.36 158.463 182.695 158.513 183.033H420.062C421.049 182.299 422.033 181.249 422.353 180.047C421.496 180.328 419.765 180.392 418.466 180.44C417.658 180.47 417.018 180.494 416.858 180.559C417.111 176.253 413.762 173.148 410.717 170.324C409.464 169.164 408.264 168.05 407.385 166.921C400.147 157.604 392.254 148.542 380.205 146.765C380.041 146.741 379.838 146.714 379.614 146.683L379.608 146.682L379.41 146.655C379.396 144.772 379.271 142.762 379.14 140.661C379.126 140.43 379.111 140.199 379.097 139.967H370.016C369.908 141.148 369.787 142.354 369.665 143.575L369.663 143.595C369.599 144.229 369.536 144.866 369.473 145.505C356.153 144.072 335.721 142.167 334.303 143.054C335.036 142.243 335.775 141.448 336.505 140.662L336.505 140.662L336.505 140.662C336.722 140.43 336.937 140.198 337.151 139.967H92.4556Z" fill="#FF9900"/>
<path fill-rule="evenodd" clip-rule="evenodd" d="M379.097 139.967C379.028 138.847 378.96 137.703 378.91 136.54L378.861 135.413C378.285 122.143 377.706 108.803 379.577 95.6216C379.721 94.6044 380.033 92.928 380.431 90.7871C383.122 76.3186 389.761 40.6301 375.329 43.7281C376.921 34.4883 367.978 35.4538 363.741 39.338C358.027 44.5787 353.801 51.988 349.559 59.4261C345.837 65.9514 342.103 72.4989 337.34 77.6236C335.657 79.433 333.976 81.2142 332.3 82.989L332.296 82.9932C330.596 84.794 328.902 86.5883 327.22 88.3987L327.25 88.1597C327.311 87.675 327.371 87.1919 327.431 86.7007C329.278 71.672 331.561 56.7642 334.868 41.863C335.251 40.1388 335.856 38.0541 336.52 35.7683C338.849 27.7438 341.898 17.2415 338.579 11.1611C337.518 9.2178 334.33 6.93763 331.715 5.06746L331.715 5.0672C330.539 4.22597 329.479 3.4677 328.78 2.86038C327.816 2.02223 327.561 1.33044 327.38 0.837253V0.837191C327.084 0.032339 326.982 -0.243576 324.308 0.236467C322.885 0.491602 320.137 2.88239 319.155 4.07669C316.284 7.57177 315.584 12.225 314.888 16.8588C314.764 17.6809 314.641 18.5023 314.505 19.3166C312.095 33.8054 304.553 47.703 297.543 60.6205C296.295 62.9197 295.064 65.1878 293.882 67.4226C291.165 72.5621 288.106 77.4042 285.042 82.2553C282.929 85.6003 280.813 88.9497 278.804 92.4038C278.218 93.413 277.607 94.5449 276.969 95.7279C275.835 97.8296 274.615 100.093 273.285 102.117C267.494 102.189 261.713 102.451 255.954 103.014C254.615 103.144 253.26 103.28 251.893 103.417L251.881 103.418C238.111 104.795 223.04 106.303 209.61 104.188C208.308 103.984 206.432 103.589 204.206 103.121L204.205 103.121C193.79 100.93 175.698 97.1256 172.705 103.553C169.57 98.8936 154.431 100.8 147.888 101.624C147.29 101.7 146.764 101.766 146.325 101.817C138.551 102.726 130.079 103.834 123.627 109.109C118.682 107.38 98.0198 110.877 92.5026 116.4C92.2999 116.118 92.113 115.863 91.9497 115.645C91.4933 115.032 91.0378 114.418 90.5825 113.805C86.0494 107.699 81.5347 101.617 76.3798 95.879C68.7385 87.3746 62.9267 77.0645 57.1225 66.7679C55.3581 63.6379 53.5945 60.5092 51.7804 57.4328C50.165 54.6939 48.2063 49.3523 45.9885 43.3037L45.9884 43.3036C41.312 30.55 35.4831 14.6535 29.2902 13.3869C29.3631 14.3986 29.5421 15.6347 29.8176 14.6648C32.169 19.3268 34.0784 24.3581 35.9916 29.3997L35.9916 29.3998C37.9479 34.555 39.9083 39.7208 42.3495 44.5133C46.2188 52.1107 50.5024 59.3939 54.7815 66.6695C57.7791 71.7661 60.7745 76.8589 63.6236 82.0533C68.645 91.2095 74.2744 100.529 80.0947 108.955C80.3671 109.349 80.6748 109.8 81.0119 110.294L81.0132 110.296C81.959 111.682 83.1368 113.409 84.4215 115.19C74.9454 104.637 61.2231 92.4566 58.0866 90.013C44.2522 79.2358 30.7365 66.699 18.6394 53.5706C17.2283 52.0391 15.5935 49.7343 13.8249 47.2409C9.57369 41.2476 4.54937 34.1643 0 34.11C6.00021 45.3352 15.589 54.2709 25.0003 63.0414C29.0265 66.7934 33.0202 70.5151 36.6866 74.3729C38.744 76.5375 40.8092 78.7217 42.8827 80.9147L42.8827 80.9147C53.9015 92.5684 65.1544 104.47 76.7083 114.988C81.3972 119.257 85.4722 122.994 89.4803 127.467C89.494 131.316 90.5723 135 92.414 139.857C92.4279 139.893 92.4418 139.93 92.4556 139.967H337.151C343.761 132.839 349.327 126.272 342.93 114.645C340.509 110.246 336.938 107.716 332.885 106.21C337.76 98.5603 342.871 91.121 348.002 83.652L348.003 83.6515L348.016 83.632C349.375 81.6541 350.735 79.674 352.093 77.6874C352.391 77.2508 352.691 76.8098 352.992 76.3666C356.456 71.2634 360.126 65.8563 365.036 63.2701C366.112 62.7034 367.241 62.4663 368.311 62.2414C370.884 61.7009 373.12 61.2311 373.475 56.4255C376.036 57.2631 374.331 62.5261 372.917 66.8944L372.917 66.8951C372.344 68.6627 371.819 70.2838 371.643 71.4058C370.451 79.025 370.614 87.0119 370.775 94.8694V94.8699C370.829 97.555 370.884 100.225 370.884 102.86C370.884 104.176 370.885 105.492 370.887 106.807C370.898 116.857 370.909 126.877 370.262 136.868C370.197 137.875 370.112 138.911 370.016 139.967H379.097ZM295.992 102.625C296.533 100.907 297.028 99.1483 297.521 97.4021C298.269 94.7463 299.01 92.1189 299.89 89.7051C302.226 83.2957 304.91 77.068 307.592 70.8453C310.836 63.3206 314.076 55.8034 316.693 47.9818C317.124 46.6958 317.56 45.0946 318.039 43.3359C320.121 35.6888 323.014 25.0649 329.784 24.4391C329.741 27.9616 328.6 31.7711 327.458 35.586C326.611 38.4168 325.762 41.2506 325.361 43.9722C324.439 50.2296 323.723 56.5643 323.009 62.8885L323.009 62.8892C322.613 66.3947 322.217 69.8969 321.787 73.3809C320.819 81.2329 320.316 88.8606 319.999 96.486C319.788 96.734 319.574 96.9779 319.361 97.2218L319.359 97.2235C319.059 97.5674 318.758 97.9114 318.462 98.2675C316.969 100.067 315.21 101.822 313.368 103.581C312.266 103.518 311.163 103.455 310.06 103.391C305.382 103.121 300.69 102.851 295.992 102.625Z" fill="black"/>
<path d="M553.297 122.104C547.225 122.104 541.889 120.755 537.289 118.056C532.75 115.296 529.224 111.463 526.709 106.556C524.194 101.649 522.937 95.9147 522.937 89.352C522.937 83.0347 524.164 77.3307 526.617 72.24C529.132 67.1493 532.812 63.1013 537.657 60.096C542.564 57.0293 548.605 55.496 555.781 55.496C563.509 55.496 569.888 57.336 574.917 61.016C580.008 64.696 583.32 69.8173 584.853 76.38H568.845C567.864 73.988 566.3 72.148 564.153 70.86C562.006 69.5107 559.216 68.836 555.781 68.836C552.285 68.836 549.188 69.664 546.489 71.32C543.79 72.9147 541.644 75.2453 540.049 78.312C538.516 81.3787 537.749 85.12 537.749 89.536C537.749 93.8293 538.516 97.448 540.049 100.392C541.582 103.336 543.637 105.544 546.213 107.016C548.85 108.488 551.764 109.224 554.953 109.224C559.553 109.224 563.141 108.243 565.717 106.28C568.293 104.256 570.072 101.649 571.053 98.46H552.377V85.948H586.049V121H572.709L571.605 113.916C569.704 116.553 567.25 118.577 564.245 119.988C561.301 121.399 557.652 122.104 553.297 122.104ZM625.517 122.104C621.101 122.104 616.869 121.337 612.821 119.804C608.834 118.271 605.246 116.063 602.057 113.18C598.929 110.297 596.445 106.801 594.605 102.692C592.826 98.5827 591.937 93.952 591.937 88.8C591.937 83.648 592.826 79.0173 594.605 74.908C596.445 70.7987 598.929 67.3027 602.057 64.42C605.246 61.5373 608.834 59.3293 612.821 57.796C616.869 56.2627 621.101 55.496 625.517 55.496C629.933 55.496 634.165 56.2627 638.213 57.796C642.261 59.3293 645.849 61.5373 648.977 64.42C652.166 67.3027 654.681 70.7987 656.521 74.908C658.361 79.0173 659.281 83.648 659.281 88.8C659.281 93.952 658.361 98.5827 656.521 102.692C654.681 106.801 652.166 110.297 648.977 113.18C645.849 116.063 642.261 118.271 638.213 119.804C634.165 121.337 629.933 122.104 625.517 122.104ZM625.517 108.948C628.522 108.948 631.466 108.212 634.349 106.74C637.232 105.268 639.593 103.06 641.433 100.116C643.334 97.1107 644.285 93.3387 644.285 88.8C644.285 84.2 643.334 80.428 641.433 77.484C639.532 74.4787 637.14 72.2707 634.257 70.86C631.374 69.388 628.461 68.652 625.517 68.652C622.573 68.652 619.66 69.388 616.777 70.86C613.956 72.2707 611.594 74.4787 609.693 77.484C607.853 80.428 606.933 84.2 606.933 88.8C606.933 93.3387 607.853 97.1107 609.693 100.116C611.533 103.06 613.864 105.268 616.685 106.74C619.568 108.212 622.512 108.948 625.517 108.948ZM680.634 121L657.542 56.6H672.906L689.742 106.372L706.578 56.6H721.85L698.666 121H680.634ZM725.488 121V56.6H767.808V69.112H740.024V80.796H763.484V93.308H740.024V108.488H767.808V121H725.488ZM775.262 121V56.6H799.826C804.242 56.6 808.136 57.3667 811.51 58.9C814.883 60.4333 817.52 62.6413 819.422 65.524C821.323 68.3453 822.274 71.7187 822.274 75.644C822.274 79.9373 821.108 83.5253 818.778 86.408C816.447 89.2907 813.227 91.3453 809.118 92.572L826.69 121H809.946L794.581 94.78H789.798V121H775.262ZM789.798 82.452H799.55C801.819 82.452 803.506 82.1147 804.61 81.44C805.775 80.704 806.572 79.8147 807.002 78.772C807.431 77.7293 807.646 76.6867 807.646 75.644C807.646 74.6013 807.431 73.5893 807.002 72.608C806.572 71.5653 805.775 70.7067 804.61 70.032C803.506 69.3573 801.819 69.02 799.55 69.02H789.798V82.452ZM831.414 121V56.6H845.95L873.458 97.172V56.6H887.994V121H873.458L845.95 80.612V121H831.414ZM896.64 121V56.6H913.936L929.668 96.068L944.94 56.6H962.236V121H947.7V82.268L935.28 113.456H923.596L911.176 82.176V121H896.64ZM970.851 121V56.6H1013.17V69.112H985.387V80.796H1008.85V93.308H985.387V108.488H1013.17V121H970.851ZM1020.62 121V56.6H1035.16L1062.67 97.172V56.6H1077.2V121H1062.67L1035.16 80.612V121H1020.62ZM1100.85 121V69.112H1082.36V56.6H1133.88V69.112H1115.29V121H1100.85Z" fill="black"/>
<path d="M528.656 178.922H556.82L553.785 188.766H552.746C553.092 187.326 553.266 186.04 553.266 184.91C553.266 183.579 552.855 182.577 552.035 181.902C551.415 181.392 549.82 181.137 547.25 181.137H544.324L536.996 206.676C536.066 209.884 535.602 211.862 535.602 212.609C535.602 213.302 535.893 213.876 536.477 214.332C537.06 214.77 538.09 214.988 539.566 214.988H540.824L540.496 216H524.363L524.664 214.988H525.375C526.797 214.988 527.891 214.76 528.656 214.305C529.185 213.995 529.659 213.439 530.078 212.637C530.516 211.816 531.117 210.094 531.883 207.469L539.566 181.137H537.352C535.219 181.137 533.496 181.41 532.184 181.957C530.889 182.504 529.841 183.297 529.039 184.336C528.237 185.375 527.581 186.852 527.07 188.766H526.059L528.656 178.922ZM568.059 177.117L560.375 203.668C563.693 198.673 566.281 195.355 568.141 193.715C570 192.074 571.777 191.254 573.473 191.254C574.348 191.254 575.077 191.555 575.66 192.156C576.243 192.758 576.535 193.56 576.535 194.562C576.535 195.766 576.28 197.224 575.77 198.938L572.434 210.395C572.014 211.78 571.805 212.546 571.805 212.691C571.805 212.947 571.878 213.156 572.023 213.32C572.188 213.484 572.37 213.566 572.57 213.566C572.807 213.566 573.081 213.448 573.391 213.211C574.43 212.409 575.46 211.297 576.48 209.875L577.328 210.395C576.708 211.361 575.842 212.427 574.73 213.594C573.637 214.742 572.689 215.544 571.887 216C571.103 216.438 570.401 216.656 569.781 216.656C569.107 216.656 568.551 216.438 568.113 216C567.694 215.581 567.484 215.034 567.484 214.359C567.484 213.557 567.803 212.062 568.441 209.875L571.586 198.938C571.987 197.57 572.188 196.495 572.188 195.711C572.188 195.346 572.069 195.055 571.832 194.836C571.613 194.617 571.322 194.508 570.957 194.508C570.428 194.508 569.827 194.708 569.152 195.109C567.913 195.875 566.482 197.297 564.859 199.375C564.422 199.94 562.964 202.219 560.484 206.211C559.719 207.487 559.09 208.882 558.598 210.395L556.848 216H552.746L561.742 184.719L562.699 181.328C562.699 180.854 562.499 180.435 562.098 180.07C561.715 179.706 561.241 179.523 560.676 179.523C560.348 179.523 559.846 179.578 559.172 179.688L558.598 179.77V178.703L568.059 177.117ZM586.297 205.691C586.169 206.603 586.105 207.359 586.105 207.961C586.105 209.583 586.68 210.969 587.828 212.117C588.977 213.247 590.371 213.812 592.012 213.812C593.324 213.812 594.582 213.548 595.785 213.02C597.007 212.473 598.811 211.279 601.199 209.438L601.773 210.23C597.453 214.514 593.333 216.656 589.414 216.656C586.753 216.656 584.747 215.818 583.398 214.141C582.049 212.464 581.375 210.613 581.375 208.59C581.375 205.874 582.214 203.094 583.891 200.25C585.568 197.406 587.673 195.201 590.207 193.633C592.741 192.047 595.348 191.254 598.027 191.254C599.96 191.254 601.391 191.646 602.32 192.43C603.25 193.214 603.715 194.143 603.715 195.219C603.715 196.732 603.113 198.181 601.91 199.566C600.324 201.371 597.991 202.829 594.91 203.941C592.868 204.689 589.997 205.272 586.297 205.691ZM586.488 204.352C589.186 204.042 591.383 203.513 593.078 202.766C595.32 201.763 596.997 200.569 598.109 199.184C599.24 197.78 599.805 196.449 599.805 195.191C599.805 194.426 599.559 193.806 599.066 193.332C598.592 192.858 597.909 192.621 597.016 192.621C595.156 192.621 593.178 193.615 591.082 195.602C589.004 197.57 587.473 200.487 586.488 204.352ZM626.711 179.934L627.039 178.922H638.879C643.892 178.922 647.602 179.496 650.008 180.645C652.432 181.793 654.365 183.607 655.805 186.086C657.245 188.547 657.965 191.19 657.965 194.016C657.965 196.44 657.546 198.801 656.707 201.098C655.887 203.376 654.948 205.208 653.891 206.594C652.852 207.961 651.247 209.474 649.078 211.133C646.909 212.792 644.557 214.022 642.023 214.824C639.49 215.608 636.327 216 632.535 216H616.84L617.195 214.988C618.635 214.952 619.602 214.824 620.094 214.605C620.823 214.296 621.361 213.876 621.707 213.348C622.236 212.582 622.828 211.042 623.484 208.727L630.047 186.305C630.557 184.536 630.812 183.151 630.812 182.148C630.812 181.438 630.576 180.891 630.102 180.508C629.628 180.125 628.698 179.934 627.312 179.934H626.711ZM636.418 180.973L628.379 208.727C627.777 210.805 627.477 212.09 627.477 212.582C627.477 212.874 627.568 213.156 627.75 213.43C627.951 213.703 628.215 213.885 628.543 213.977C629.017 214.141 629.783 214.223 630.84 214.223C633.702 214.223 636.354 213.931 638.797 213.348C641.258 212.746 643.272 211.862 644.84 210.695C647.064 209 648.841 206.667 650.172 203.695C651.503 200.724 652.168 197.342 652.168 193.551C652.168 189.267 651.147 186.086 649.105 184.008C647.064 181.911 644.083 180.863 640.164 180.863C639.198 180.863 637.949 180.9 636.418 180.973ZM665.648 205.691C665.521 206.603 665.457 207.359 665.457 207.961C665.457 209.583 666.031 210.969 667.18 212.117C668.328 213.247 669.723 213.812 671.363 213.812C672.676 213.812 673.934 213.548 675.137 213.02C676.358 212.473 678.163 211.279 680.551 209.438L681.125 210.23C676.805 214.514 672.685 216.656 668.766 216.656C666.104 216.656 664.099 215.818 662.75 214.141C661.401 212.464 660.727 210.613 660.727 208.59C660.727 205.874 661.565 203.094 663.242 200.25C664.919 197.406 667.025 195.201 669.559 193.633C672.092 192.047 674.699 191.254 677.379 191.254C679.311 191.254 680.742 191.646 681.672 192.43C682.602 193.214 683.066 194.143 683.066 195.219C683.066 196.732 682.465 198.181 681.262 199.566C679.676 201.371 677.342 202.829 674.262 203.941C672.22 204.689 669.349 205.272 665.648 205.691ZM665.84 204.352C668.538 204.042 670.734 203.513 672.43 202.766C674.672 201.763 676.349 200.569 677.461 199.184C678.591 197.78 679.156 196.449 679.156 195.191C679.156 194.426 678.91 193.806 678.418 193.332C677.944 192.858 677.26 192.621 676.367 192.621C674.508 192.621 672.53 193.615 670.434 195.602C668.355 197.57 666.824 200.487 665.84 204.352ZM696 191.254L692.445 203.586C694.031 200.688 695.38 198.509 696.492 197.051C698.224 194.79 699.91 193.15 701.551 192.129C702.517 191.546 703.529 191.254 704.586 191.254C705.497 191.254 706.254 191.546 706.855 192.129C707.457 192.712 707.758 193.46 707.758 194.371C707.758 195.264 707.548 196.431 707.129 197.871L705.188 204.816C708.159 199.257 710.975 195.355 713.637 193.113C715.113 191.874 716.572 191.254 718.012 191.254C718.85 191.254 719.534 191.546 720.062 192.129C720.609 192.694 720.883 193.578 720.883 194.781C720.883 195.839 720.719 196.96 720.391 198.145L717.383 208.781C716.727 211.096 716.398 212.382 716.398 212.637C716.398 212.892 716.48 213.111 716.645 213.293C716.754 213.421 716.9 213.484 717.082 213.484C717.264 213.484 717.583 213.311 718.039 212.965C719.078 212.163 720.053 211.105 720.965 209.793L721.867 210.367C721.411 211.096 720.6 212.099 719.434 213.375C718.285 214.651 717.301 215.517 716.48 215.973C715.66 216.428 714.904 216.656 714.211 216.656C713.573 216.656 713.035 216.438 712.598 216C712.178 215.562 711.969 215.025 711.969 214.387C711.969 213.512 712.342 211.753 713.09 209.109L715.578 200.332C716.143 198.309 716.444 197.188 716.48 196.969C716.535 196.622 716.562 196.285 716.562 195.957C716.562 195.501 716.462 195.146 716.262 194.891C716.043 194.635 715.797 194.508 715.523 194.508C714.758 194.508 713.947 194.9 713.09 195.684C710.574 197.999 708.223 201.243 706.035 205.418C704.595 208.171 703.246 211.698 701.988 216H697.859L702.535 199.457C703.046 197.671 703.301 196.477 703.301 195.875C703.301 195.383 703.201 195.018 703 194.781C702.799 194.544 702.553 194.426 702.262 194.426C701.66 194.426 701.022 194.645 700.348 195.082C699.254 195.793 697.841 197.315 696.109 199.648C694.396 201.982 693.065 204.215 692.117 206.348C691.661 207.35 690.577 210.568 688.863 216H684.816L689.875 198.281L690.531 195.984C690.659 195.638 690.723 195.383 690.723 195.219C690.723 194.818 690.54 194.462 690.176 194.152C689.811 193.824 689.346 193.66 688.781 193.66C688.544 193.66 687.888 193.77 686.812 193.988L686.566 192.977L696 191.254ZM750.223 199.812C750.223 202.547 749.493 205.254 748.035 207.934C746.595 210.613 744.581 212.737 741.992 214.305C739.404 215.872 736.888 216.656 734.445 216.656C731.948 216.656 729.906 215.863 728.32 214.277C726.753 212.673 725.969 210.604 725.969 208.07C725.969 205.391 726.734 202.702 728.266 200.004C729.815 197.306 731.875 195.173 734.445 193.605C737.034 192.038 739.531 191.254 741.938 191.254C744.344 191.254 746.322 192.047 747.871 193.633C749.439 195.219 750.223 197.279 750.223 199.812ZM745.684 197.926C745.684 196.23 745.264 194.936 744.426 194.043C743.605 193.132 742.539 192.676 741.227 192.676C738.547 192.676 736.077 194.599 733.816 198.445C731.574 202.273 730.453 206.083 730.453 209.875C730.453 211.607 730.891 212.947 731.766 213.895C732.641 214.824 733.743 215.289 735.074 215.289C737.645 215.289 740.051 213.384 742.293 209.574C744.553 205.746 745.684 201.863 745.684 197.926ZM773.957 210.039C772.061 212.318 770.147 213.995 768.215 215.07C766.283 216.128 764.241 216.656 762.09 216.656C759.501 216.656 757.478 215.927 756.02 214.469C754.579 213.01 753.859 211.051 753.859 208.59C753.859 205.801 754.634 203.057 756.184 200.359C757.751 197.661 759.848 195.474 762.473 193.797C765.116 192.102 767.704 191.254 770.238 191.254C772.225 191.254 773.711 191.673 774.695 192.512C775.68 193.332 776.172 194.344 776.172 195.547C776.172 196.677 775.826 197.643 775.133 198.445C774.622 199.065 773.993 199.375 773.246 199.375C772.681 199.375 772.207 199.193 771.824 198.828C771.46 198.464 771.277 198.008 771.277 197.461C771.277 197.115 771.341 196.796 771.469 196.504C771.615 196.212 771.897 195.866 772.316 195.465C772.754 195.046 773.018 194.745 773.109 194.562C773.201 194.38 773.246 194.189 773.246 193.988C773.246 193.605 773.073 193.286 772.727 193.031C772.198 192.667 771.451 192.484 770.484 192.484C768.698 192.484 766.93 193.113 765.18 194.371C763.43 195.629 761.935 197.415 760.695 199.73C759.201 202.538 758.453 205.345 758.453 208.152C758.453 210.012 758.982 211.488 760.039 212.582C761.096 213.658 762.536 214.195 764.359 214.195C765.763 214.195 767.148 213.849 768.516 213.156C769.901 212.445 771.451 211.169 773.164 209.328L773.957 210.039ZM780.137 192.785L789.57 191.254L785.633 204.543C788.823 199.092 791.721 195.283 794.328 193.113C795.805 191.874 797.008 191.254 797.938 191.254C798.539 191.254 799.013 191.436 799.359 191.801C799.706 192.147 799.879 192.658 799.879 193.332C799.879 194.535 799.569 195.684 798.949 196.777C798.512 197.598 797.883 198.008 797.062 198.008C796.643 198.008 796.279 197.871 795.969 197.598C795.677 197.324 795.495 196.905 795.422 196.34C795.385 195.993 795.303 195.766 795.176 195.656C795.03 195.51 794.857 195.438 794.656 195.438C794.346 195.438 794.055 195.51 793.781 195.656C793.307 195.911 792.587 196.622 791.621 197.789C790.108 199.576 788.467 201.891 786.699 204.734C785.934 205.938 785.277 207.296 784.73 208.809C783.965 210.887 783.527 212.135 783.418 212.555L782.543 216H778.359L783.418 199.02C784.001 197.051 784.293 195.647 784.293 194.809C784.293 194.48 784.156 194.207 783.883 193.988C783.518 193.697 783.035 193.551 782.434 193.551C782.051 193.551 781.349 193.633 780.328 193.797L780.137 192.785ZM825.309 191.254L819.977 209.793L819.375 212.281C819.32 212.518 819.293 212.719 819.293 212.883C819.293 213.174 819.384 213.43 819.566 213.648C819.712 213.812 819.895 213.895 820.113 213.895C820.35 213.895 820.66 213.749 821.043 213.457C821.754 212.928 822.702 211.835 823.887 210.176L824.816 210.832C823.559 212.728 822.264 214.177 820.934 215.18C819.603 216.164 818.372 216.656 817.242 216.656C816.458 216.656 815.866 216.456 815.465 216.055C815.082 215.672 814.891 215.107 814.891 214.359C814.891 213.466 815.091 212.29 815.492 210.832L816.066 208.781C813.678 211.898 811.482 214.077 809.477 215.316C808.036 216.21 806.624 216.656 805.238 216.656C803.908 216.656 802.759 216.109 801.793 215.016C800.827 213.904 800.344 212.382 800.344 210.449C800.344 207.551 801.21 204.497 802.941 201.289C804.691 198.062 806.906 195.483 809.586 193.551C811.682 192.02 813.66 191.254 815.52 191.254C816.632 191.254 817.552 191.546 818.281 192.129C819.029 192.712 819.594 193.678 819.977 195.027L820.961 191.91L825.309 191.254ZM815.574 192.676C814.408 192.676 813.168 193.223 811.855 194.316C809.996 195.866 808.337 198.163 806.879 201.207C805.439 204.251 804.719 207.004 804.719 209.465C804.719 210.704 805.029 211.689 805.648 212.418C806.268 213.129 806.979 213.484 807.781 213.484C809.768 213.484 811.928 212.017 814.262 209.082C817.379 205.181 818.938 201.18 818.938 197.078C818.938 195.529 818.637 194.408 818.035 193.715C817.434 193.022 816.613 192.676 815.574 192.676ZM841.578 184.473L839.445 191.91H843.738L843.273 193.633H839.008L834.305 209.766C833.794 211.497 833.539 212.618 833.539 213.129C833.539 213.439 833.612 213.676 833.758 213.84C833.904 214.004 834.077 214.086 834.277 214.086C834.733 214.086 835.335 213.767 836.082 213.129C836.52 212.764 837.495 211.643 839.008 209.766L839.91 210.449C838.233 212.892 836.647 214.615 835.152 215.617C834.132 216.31 833.102 216.656 832.062 216.656C831.26 216.656 830.604 216.41 830.094 215.918C829.583 215.408 829.328 214.76 829.328 213.977C829.328 212.992 829.62 211.488 830.203 209.465L834.77 193.633H830.641L830.914 192.566C832.919 192.02 834.587 191.208 835.918 190.133C837.249 189.039 838.734 187.152 840.375 184.473H841.578ZM855.141 180.398C855.906 180.398 856.553 180.663 857.082 181.191C857.611 181.72 857.875 182.367 857.875 183.133C857.875 183.88 857.602 184.527 857.055 185.074C856.526 185.603 855.888 185.867 855.141 185.867C854.393 185.867 853.746 185.603 853.199 185.074C852.671 184.527 852.406 183.88 852.406 183.133C852.406 182.367 852.671 181.72 853.199 181.191C853.728 180.663 854.375 180.398 855.141 180.398ZM855.496 191.254L850.082 210.422C849.717 211.716 849.535 212.491 849.535 212.746C849.535 213.038 849.617 213.275 849.781 213.457C849.964 213.639 850.173 213.73 850.41 213.73C850.684 213.73 851.012 213.585 851.395 213.293C852.434 212.473 853.482 211.306 854.539 209.793L855.496 210.422C854.257 212.318 852.798 213.913 851.121 215.207C849.882 216.173 848.697 216.656 847.566 216.656C846.819 216.656 846.208 216.438 845.734 216C845.26 215.544 845.023 214.979 845.023 214.305C845.023 213.63 845.251 212.509 845.707 210.941L849.262 198.691C849.845 196.686 850.137 195.428 850.137 194.918C850.137 194.517 849.991 194.189 849.699 193.934C849.426 193.678 849.043 193.551 848.551 193.551C848.15 193.551 847.32 193.651 846.062 193.852V192.785L855.496 191.254ZM879.832 210.039C877.936 212.318 876.022 213.995 874.09 215.07C872.158 216.128 870.116 216.656 867.965 216.656C865.376 216.656 863.353 215.927 861.895 214.469C860.454 213.01 859.734 211.051 859.734 208.59C859.734 205.801 860.509 203.057 862.059 200.359C863.626 197.661 865.723 195.474 868.348 193.797C870.991 192.102 873.579 191.254 876.113 191.254C878.1 191.254 879.586 191.673 880.57 192.512C881.555 193.332 882.047 194.344 882.047 195.547C882.047 196.677 881.701 197.643 881.008 198.445C880.497 199.065 879.868 199.375 879.121 199.375C878.556 199.375 878.082 199.193 877.699 198.828C877.335 198.464 877.152 198.008 877.152 197.461C877.152 197.115 877.216 196.796 877.344 196.504C877.49 196.212 877.772 195.866 878.191 195.465C878.629 195.046 878.893 194.745 878.984 194.562C879.076 194.38 879.121 194.189 879.121 193.988C879.121 193.605 878.948 193.286 878.602 193.031C878.073 192.667 877.326 192.484 876.359 192.484C874.573 192.484 872.805 193.113 871.055 194.371C869.305 195.629 867.81 197.415 866.57 199.73C865.076 202.538 864.328 205.345 864.328 208.152C864.328 210.012 864.857 211.488 865.914 212.582C866.971 213.658 868.411 214.195 870.234 214.195C871.638 214.195 873.023 213.849 874.391 213.156C875.776 212.445 877.326 211.169 879.039 209.328L879.832 210.039ZM920.355 216L914.422 197.98C913.036 197.999 911.615 197.862 910.156 197.57L906.957 208.781C906.538 210.24 906.328 211.47 906.328 212.473C906.328 213.238 906.592 213.84 907.121 214.277C907.522 214.605 908.616 214.842 910.402 214.988L910.156 216H895.801L896.102 214.988C897.451 214.934 898.362 214.797 898.836 214.578C899.583 214.268 900.13 213.849 900.477 213.32C901.06 212.464 901.671 210.951 902.309 208.781L908.789 186.387C909.227 184.892 909.445 183.734 909.445 182.914C909.445 182.076 909.099 181.365 908.406 180.781C907.732 180.198 906.757 179.915 905.48 179.934L905.809 178.922H917.895C921.941 178.922 924.858 179.688 926.645 181.219C928.431 182.75 929.324 184.764 929.324 187.262C929.324 189.65 928.404 191.837 926.562 193.824C924.74 195.793 922.233 197.042 919.043 197.57L922.652 208.426C923.527 211.087 924.402 212.819 925.277 213.621C926.152 214.423 927.565 214.879 929.516 214.988L929.215 216H920.355ZM910.621 196.012C911.788 196.176 912.827 196.258 913.738 196.258C916.874 196.258 919.353 195.392 921.176 193.66C922.999 191.91 923.91 189.741 923.91 187.152C923.91 185.129 923.336 183.579 922.188 182.504C921.057 181.428 919.353 180.891 917.074 180.891C916.491 180.891 915.798 180.964 914.996 181.109L910.621 196.012ZM937.992 205.691C937.865 206.603 937.801 207.359 937.801 207.961C937.801 209.583 938.375 210.969 939.523 212.117C940.672 213.247 942.066 213.812 943.707 213.812C945.02 213.812 946.277 213.548 947.48 213.02C948.702 212.473 950.507 211.279 952.895 209.438L953.469 210.23C949.148 214.514 945.029 216.656 941.109 216.656C938.448 216.656 936.443 215.818 935.094 214.141C933.745 212.464 933.07 210.613 933.07 208.59C933.07 205.874 933.909 203.094 935.586 200.25C937.263 197.406 939.368 195.201 941.902 193.633C944.436 192.047 947.043 191.254 949.723 191.254C951.655 191.254 953.086 191.646 954.016 192.43C954.945 193.214 955.41 194.143 955.41 195.219C955.41 196.732 954.809 198.181 953.605 199.566C952.02 201.371 949.686 202.829 946.605 203.941C944.564 204.689 941.693 205.272 937.992 205.691ZM938.184 204.352C940.882 204.042 943.078 203.513 944.773 202.766C947.016 201.763 948.693 200.569 949.805 199.184C950.935 197.78 951.5 196.449 951.5 195.191C951.5 194.426 951.254 193.806 950.762 193.332C950.288 192.858 949.604 192.621 948.711 192.621C946.852 192.621 944.874 193.615 942.777 195.602C940.699 197.57 939.168 200.487 938.184 204.352ZM968.59 191.254L966.703 197.543C968.69 195.21 970.458 193.578 972.008 192.648C973.576 191.719 975.171 191.254 976.793 191.254C978.415 191.254 979.801 191.901 980.949 193.195C982.098 194.471 982.672 196.139 982.672 198.199C982.672 202.21 981.04 206.293 977.777 210.449C974.514 214.587 970.714 216.656 966.375 216.656C965.464 216.656 964.652 216.556 963.941 216.355C963.249 216.155 962.465 215.799 961.59 215.289L959.594 222.344C959.193 223.729 958.992 224.632 958.992 225.051C958.992 225.452 959.092 225.789 959.293 226.062C959.512 226.354 959.858 226.573 960.332 226.719C960.806 226.883 961.745 226.965 963.148 226.965L962.902 227.977H950.023L950.297 226.965C951.992 226.892 953.141 226.6 953.742 226.09C954.326 225.579 954.945 224.167 955.602 221.852L962.52 197.898C962.939 196.385 963.148 195.447 963.148 195.082C963.148 194.59 963.003 194.207 962.711 193.934C962.438 193.66 962.009 193.523 961.426 193.523C960.897 193.523 960.159 193.587 959.211 193.715V192.648L968.59 191.254ZM962.219 213.129C963.349 214.478 964.871 215.152 966.785 215.152C967.733 215.152 968.699 214.888 969.684 214.359C970.668 213.831 971.625 213.047 972.555 212.008C973.503 210.969 974.35 209.775 975.098 208.426C975.845 207.059 976.51 205.454 977.094 203.613C977.695 201.772 977.996 199.949 977.996 198.145C977.996 196.686 977.659 195.574 976.984 194.809C976.328 194.025 975.553 193.633 974.66 193.633C972.691 193.633 970.741 194.763 968.809 197.023C966.895 199.284 965.491 201.927 964.598 204.953L962.219 213.129ZM1010.56 191.91L1005.8 208.207C1005.09 210.632 1004.74 212.163 1004.74 212.801C1004.74 213.129 1004.79 213.375 1004.9 213.539C1005.03 213.685 1005.19 213.758 1005.39 213.758C1005.7 213.758 1006.04 213.621 1006.41 213.348C1006.79 213.056 1007.74 211.926 1009.25 209.957L1010.07 210.586C1008.63 212.865 1007.15 214.542 1005.64 215.617C1004.64 216.31 1003.67 216.656 1002.74 216.656C1002.03 216.656 1001.48 216.456 1001.07 216.055C1000.67 215.654 1000.47 215.134 1000.47 214.496C1000.47 213.876 1000.59 213.056 1000.83 212.035C1001.12 210.686 1001.95 207.751 1003.32 203.23C1000.22 208.316 997.62 211.826 995.523 213.758C993.445 215.69 991.513 216.656 989.727 216.656C988.888 216.656 988.177 216.365 987.594 215.781C987.01 215.198 986.719 214.46 986.719 213.566C986.719 212.199 987.12 210.103 987.922 207.277L990.301 198.828C990.884 196.805 991.176 195.547 991.176 195.055C991.176 194.836 991.094 194.654 990.93 194.508C990.784 194.344 990.62 194.262 990.438 194.262C990.055 194.262 989.672 194.398 989.289 194.672C988.906 194.945 988.04 195.957 986.691 197.707L985.844 197.105C987.211 194.991 988.66 193.432 990.191 192.43C991.358 191.646 992.434 191.254 993.418 191.254C994.092 191.254 994.639 191.473 995.059 191.91C995.496 192.329 995.715 192.876 995.715 193.551C995.715 194.535 995.35 196.294 994.621 198.828L992.051 207.66C991.34 210.066 990.984 211.589 990.984 212.227C990.984 212.573 991.094 212.855 991.312 213.074C991.549 213.275 991.859 213.375 992.242 213.375C992.844 213.375 993.628 213.074 994.594 212.473C995.56 211.871 996.845 210.54 998.449 208.48C1000.07 206.402 1001.4 204.461 1002.44 202.656C1003.5 200.833 1004.62 197.944 1005.8 193.988L1006.41 191.91H1010.56ZM1028.36 177.117L1022.98 196.012C1024.73 194.189 1026.25 192.94 1027.54 192.266C1028.86 191.591 1030.22 191.254 1031.64 191.254C1033.65 191.254 1035.29 191.919 1036.57 193.25C1037.84 194.581 1038.48 196.385 1038.48 198.664C1038.48 201.599 1037.64 204.525 1035.96 207.441C1034.29 210.34 1032.18 212.6 1029.65 214.223C1027.11 215.845 1024.62 216.656 1022.16 216.656C1019.4 216.656 1016.58 215.626 1013.68 213.566L1021.99 184.938C1022.63 182.732 1022.95 181.438 1022.95 181.055C1022.95 180.581 1022.8 180.225 1022.51 179.988C1022.09 179.66 1021.47 179.496 1020.65 179.496C1020.27 179.496 1019.69 179.56 1018.9 179.688V178.648L1028.36 177.117ZM1017.78 213.867C1019.6 214.87 1021.21 215.371 1022.59 215.371C1024.2 215.371 1025.86 214.788 1027.57 213.621C1029.3 212.436 1030.8 210.449 1032.05 207.66C1033.33 204.871 1033.97 202.055 1033.97 199.211C1033.97 197.534 1033.55 196.221 1032.71 195.273C1031.89 194.326 1030.92 193.852 1029.79 193.852C1028.09 193.852 1026.43 194.535 1024.81 195.902C1023.19 197.251 1022.03 199.138 1021.34 201.562L1017.78 213.867ZM1056.86 177.117L1047.5 209.656C1047.05 211.279 1046.82 212.272 1046.82 212.637C1046.82 212.91 1046.9 213.138 1047.07 213.32C1047.25 213.503 1047.47 213.594 1047.72 213.594C1048.07 213.594 1048.44 213.439 1048.84 213.129C1049.79 212.382 1050.79 211.224 1051.82 209.656L1052.64 210.504C1050.91 212.947 1049.32 214.651 1047.86 215.617C1046.78 216.31 1045.76 216.656 1044.8 216.656C1044.1 216.656 1043.52 216.419 1043.05 215.945C1042.59 215.471 1042.36 214.924 1042.36 214.305C1042.36 213.648 1042.65 212.299 1043.24 210.258L1050.65 184.609C1051.25 182.513 1051.55 181.31 1051.55 181C1051.55 180.562 1051.38 180.207 1051.03 179.934C1050.68 179.642 1050.15 179.496 1049.42 179.496C1049 179.496 1048.36 179.56 1047.5 179.688V178.676L1056.86 177.117ZM1068.31 180.398C1069.08 180.398 1069.73 180.663 1070.25 181.191C1070.78 181.72 1071.05 182.367 1071.05 183.133C1071.05 183.88 1070.77 184.527 1070.23 185.074C1069.7 185.603 1069.06 185.867 1068.31 185.867C1067.57 185.867 1066.92 185.603 1066.37 185.074C1065.84 184.527 1065.58 183.88 1065.58 183.133C1065.58 182.367 1065.84 181.72 1066.37 181.191C1066.9 180.663 1067.55 180.398 1068.31 180.398ZM1068.67 191.254L1063.25 210.422C1062.89 211.716 1062.71 212.491 1062.71 212.746C1062.71 213.038 1062.79 213.275 1062.95 213.457C1063.14 213.639 1063.35 213.73 1063.58 213.73C1063.86 213.73 1064.18 213.585 1064.57 213.293C1065.61 212.473 1066.65 211.306 1067.71 209.793L1068.67 210.422C1067.43 212.318 1065.97 213.913 1064.29 215.207C1063.05 216.173 1061.87 216.656 1060.74 216.656C1059.99 216.656 1059.38 216.438 1058.91 216C1058.43 215.544 1058.2 214.979 1058.2 214.305C1058.2 213.63 1058.42 212.509 1058.88 210.941L1062.43 198.691C1063.02 196.686 1063.31 195.428 1063.31 194.918C1063.31 194.517 1063.16 194.189 1062.87 193.934C1062.6 193.678 1062.21 193.551 1061.72 193.551C1061.32 193.551 1060.49 193.651 1059.23 193.852V192.785L1068.67 191.254ZM1093 210.039C1091.11 212.318 1089.19 213.995 1087.26 215.07C1085.33 216.128 1083.29 216.656 1081.14 216.656C1078.55 216.656 1076.52 215.927 1075.07 214.469C1073.63 213.01 1072.91 211.051 1072.91 208.59C1072.91 205.801 1073.68 203.057 1075.23 200.359C1076.8 197.661 1078.89 195.474 1081.52 193.797C1084.16 192.102 1086.75 191.254 1089.29 191.254C1091.27 191.254 1092.76 191.673 1093.74 192.512C1094.73 193.332 1095.22 194.344 1095.22 195.547C1095.22 196.677 1094.87 197.643 1094.18 198.445C1093.67 199.065 1093.04 199.375 1092.29 199.375C1091.73 199.375 1091.25 199.193 1090.87 198.828C1090.51 198.464 1090.32 198.008 1090.32 197.461C1090.32 197.115 1090.39 196.796 1090.52 196.504C1090.66 196.212 1090.94 195.866 1091.36 195.465C1091.8 195.046 1092.07 194.745 1092.16 194.562C1092.25 194.38 1092.29 194.189 1092.29 193.988C1092.29 193.605 1092.12 193.286 1091.77 193.031C1091.24 192.667 1090.5 192.484 1089.53 192.484C1087.74 192.484 1085.98 193.113 1084.23 194.371C1082.48 195.629 1080.98 197.415 1079.74 199.73C1078.25 202.538 1077.5 205.345 1077.5 208.152C1077.5 210.012 1078.03 211.488 1079.09 212.582C1080.14 213.658 1081.58 214.195 1083.41 214.195C1084.81 214.195 1086.2 213.849 1087.56 213.156C1088.95 212.445 1090.5 211.169 1092.21 209.328L1093 210.039ZM1136.15 199.812C1136.15 202.547 1135.42 205.254 1133.96 207.934C1132.52 210.613 1130.51 212.737 1127.92 214.305C1125.33 215.872 1122.82 216.656 1120.38 216.656C1117.88 216.656 1115.84 215.863 1114.25 214.277C1112.68 212.673 1111.9 210.604 1111.9 208.07C1111.9 205.391 1112.66 202.702 1114.2 200.004C1115.74 197.306 1117.8 195.173 1120.38 193.605C1122.96 192.038 1125.46 191.254 1127.87 191.254C1130.27 191.254 1132.25 192.047 1133.8 193.633C1135.37 195.219 1136.15 197.279 1136.15 199.812ZM1131.61 197.926C1131.61 196.23 1131.19 194.936 1130.36 194.043C1129.54 193.132 1128.47 192.676 1127.16 192.676C1124.48 192.676 1122.01 194.599 1119.75 198.445C1117.5 202.273 1116.38 206.083 1116.38 209.875C1116.38 211.607 1116.82 212.947 1117.7 213.895C1118.57 214.824 1119.67 215.289 1121 215.289C1123.57 215.289 1125.98 213.384 1128.22 209.574C1130.48 205.746 1131.61 201.863 1131.61 197.926ZM1154.86 191.91L1154.36 193.715H1150.37L1147.36 205.664C1146.03 210.932 1144.69 215.007 1143.34 217.887C1141.43 221.952 1139.37 224.759 1137.16 226.309C1135.49 227.493 1133.81 228.086 1132.13 228.086C1131.04 228.086 1130.11 227.758 1129.34 227.102C1128.78 226.646 1128.5 226.053 1128.5 225.324C1128.5 224.741 1128.73 224.23 1129.21 223.793C1129.66 223.374 1130.23 223.164 1130.9 223.164C1131.39 223.164 1131.81 223.319 1132.16 223.629C1132.49 223.939 1132.65 224.294 1132.65 224.695C1132.65 225.096 1132.46 225.47 1132.08 225.816C1131.79 226.072 1131.64 226.263 1131.64 226.391C1131.64 226.555 1131.7 226.682 1131.83 226.773C1132 226.901 1132.25 226.965 1132.6 226.965C1133.38 226.965 1134.21 226.719 1135.09 226.227C1135.94 225.734 1136.71 224.996 1137.38 224.012C1138.06 223.046 1138.7 221.642 1139.3 219.801C1139.55 219.035 1140.24 216.51 1141.35 212.227L1146.11 193.715H1141.35L1141.73 191.91C1143.24 191.91 1144.3 191.81 1144.9 191.609C1145.5 191.391 1146.05 190.99 1146.54 190.406C1147.05 189.805 1147.71 188.693 1148.51 187.07C1149.59 184.883 1150.62 183.188 1151.6 181.984C1152.95 180.362 1154.36 179.15 1155.84 178.348C1157.33 177.527 1158.74 177.117 1160.05 177.117C1161.44 177.117 1162.55 177.473 1163.39 178.184C1164.23 178.876 1164.64 179.633 1164.64 180.453C1164.64 181.091 1164.43 181.629 1164.02 182.066C1163.6 182.504 1163.06 182.723 1162.4 182.723C1161.84 182.723 1161.37 182.559 1161.01 182.23C1160.66 181.902 1160.49 181.51 1160.49 181.055C1160.49 180.763 1160.61 180.408 1160.84 179.988C1161.08 179.551 1161.2 179.259 1161.2 179.113C1161.2 178.858 1161.12 178.667 1160.95 178.539C1160.72 178.357 1160.37 178.266 1159.91 178.266C1158.77 178.266 1157.74 178.63 1156.82 179.359C1155.6 180.326 1154.51 181.839 1153.54 183.898C1153.05 184.974 1152.15 187.645 1150.84 191.91H1154.86ZM535 248.473L532.867 255.91H537.16L536.695 257.633H532.43L527.727 273.766C527.216 275.497 526.961 276.618 526.961 277.129C526.961 277.439 527.034 277.676 527.18 277.84C527.326 278.004 527.499 278.086 527.699 278.086C528.155 278.086 528.757 277.767 529.504 277.129C529.941 276.764 530.917 275.643 532.43 273.766L533.332 274.449C531.655 276.892 530.069 278.615 528.574 279.617C527.553 280.31 526.523 280.656 525.484 280.656C524.682 280.656 524.026 280.41 523.516 279.918C523.005 279.408 522.75 278.76 522.75 277.977C522.75 276.992 523.042 275.488 523.625 273.465L528.191 257.633H524.062L524.336 256.566C526.341 256.02 528.009 255.208 529.34 254.133C530.671 253.039 532.156 251.152 533.797 248.473H535ZM552.473 241.117L544.789 267.668C548.107 262.673 550.695 259.355 552.555 257.715C554.414 256.074 556.191 255.254 557.887 255.254C558.762 255.254 559.491 255.555 560.074 256.156C560.658 256.758 560.949 257.56 560.949 258.562C560.949 259.766 560.694 261.224 560.184 262.938L556.848 274.395C556.428 275.78 556.219 276.546 556.219 276.691C556.219 276.947 556.292 277.156 556.438 277.32C556.602 277.484 556.784 277.566 556.984 277.566C557.221 277.566 557.495 277.448 557.805 277.211C558.844 276.409 559.874 275.297 560.895 273.875L561.742 274.395C561.122 275.361 560.257 276.427 559.145 277.594C558.051 278.742 557.103 279.544 556.301 280C555.517 280.438 554.815 280.656 554.195 280.656C553.521 280.656 552.965 280.438 552.527 280C552.108 279.581 551.898 279.034 551.898 278.359C551.898 277.557 552.217 276.062 552.855 273.875L556 262.938C556.401 261.57 556.602 260.495 556.602 259.711C556.602 259.346 556.483 259.055 556.246 258.836C556.027 258.617 555.736 258.508 555.371 258.508C554.842 258.508 554.241 258.708 553.566 259.109C552.327 259.875 550.896 261.297 549.273 263.375C548.836 263.94 547.378 266.219 544.898 270.211C544.133 271.487 543.504 272.882 543.012 274.395L541.262 280H537.16L546.156 248.719L547.113 245.328C547.113 244.854 546.913 244.435 546.512 244.07C546.129 243.706 545.655 243.523 545.09 243.523C544.762 243.523 544.26 243.578 543.586 243.688L543.012 243.77V242.703L552.473 241.117ZM570.711 269.691C570.583 270.603 570.52 271.359 570.52 271.961C570.52 273.583 571.094 274.969 572.242 276.117C573.391 277.247 574.785 277.812 576.426 277.812C577.738 277.812 578.996 277.548 580.199 277.02C581.421 276.473 583.225 275.279 585.613 273.438L586.188 274.23C581.867 278.514 577.747 280.656 573.828 280.656C571.167 280.656 569.161 279.818 567.812 278.141C566.464 276.464 565.789 274.613 565.789 272.59C565.789 269.874 566.628 267.094 568.305 264.25C569.982 261.406 572.087 259.201 574.621 257.633C577.155 256.047 579.762 255.254 582.441 255.254C584.374 255.254 585.805 255.646 586.734 256.43C587.664 257.214 588.129 258.143 588.129 259.219C588.129 260.732 587.527 262.181 586.324 263.566C584.738 265.371 582.405 266.829 579.324 267.941C577.283 268.689 574.411 269.272 570.711 269.691ZM570.902 268.352C573.6 268.042 575.797 267.513 577.492 266.766C579.734 265.763 581.411 264.569 582.523 263.184C583.654 261.78 584.219 260.449 584.219 259.191C584.219 258.426 583.973 257.806 583.48 257.332C583.007 256.858 582.323 256.621 581.43 256.621C579.57 256.621 577.592 257.615 575.496 259.602C573.418 261.57 571.887 264.487 570.902 268.352ZM611.125 242.922H639.289L636.254 252.766H635.215C635.561 251.326 635.734 250.04 635.734 248.91C635.734 247.579 635.324 246.577 634.504 245.902C633.884 245.392 632.289 245.137 629.719 245.137H626.793L619.465 270.676C618.535 273.884 618.07 275.862 618.07 276.609C618.07 277.302 618.362 277.876 618.945 278.332C619.529 278.77 620.559 278.988 622.035 278.988H623.293L622.965 280H606.832L607.133 278.988H607.844C609.266 278.988 610.359 278.76 611.125 278.305C611.654 277.995 612.128 277.439 612.547 276.637C612.984 275.816 613.586 274.094 614.352 271.469L622.035 245.137H619.82C617.688 245.137 615.965 245.41 614.652 245.957C613.358 246.504 612.31 247.297 611.508 248.336C610.706 249.375 610.049 250.852 609.539 252.766H608.527L611.125 242.922ZM650.527 241.117L642.844 267.668C646.161 262.673 648.75 259.355 650.609 257.715C652.469 256.074 654.246 255.254 655.941 255.254C656.816 255.254 657.546 255.555 658.129 256.156C658.712 256.758 659.004 257.56 659.004 258.562C659.004 259.766 658.749 261.224 658.238 262.938L654.902 274.395C654.483 275.78 654.273 276.546 654.273 276.691C654.273 276.947 654.346 277.156 654.492 277.32C654.656 277.484 654.839 277.566 655.039 277.566C655.276 277.566 655.549 277.448 655.859 277.211C656.898 276.409 657.928 275.297 658.949 273.875L659.797 274.395C659.177 275.361 658.311 276.427 657.199 277.594C656.105 278.742 655.158 279.544 654.355 280C653.572 280.438 652.87 280.656 652.25 280.656C651.576 280.656 651.02 280.438 650.582 280C650.163 279.581 649.953 279.034 649.953 278.359C649.953 277.557 650.272 276.062 650.91 273.875L654.055 262.938C654.456 261.57 654.656 260.495 654.656 259.711C654.656 259.346 654.538 259.055 654.301 258.836C654.082 258.617 653.79 258.508 653.426 258.508C652.897 258.508 652.296 258.708 651.621 259.109C650.382 259.875 648.951 261.297 647.328 263.375C646.891 263.94 645.432 266.219 642.953 270.211C642.188 271.487 641.559 272.882 641.066 274.395L639.316 280H635.215L644.211 248.719L645.168 245.328C645.168 244.854 644.967 244.435 644.566 244.07C644.184 243.706 643.71 243.523 643.145 243.523C642.816 243.523 642.315 243.578 641.641 243.688L641.066 243.77V242.703L650.527 241.117ZM674.617 244.398C675.383 244.398 676.03 244.663 676.559 245.191C677.087 245.72 677.352 246.367 677.352 247.133C677.352 247.88 677.078 248.527 676.531 249.074C676.003 249.603 675.365 249.867 674.617 249.867C673.87 249.867 673.223 249.603 672.676 249.074C672.147 248.527 671.883 247.88 671.883 247.133C671.883 246.367 672.147 245.72 672.676 245.191C673.204 244.663 673.852 244.398 674.617 244.398ZM674.973 255.254L669.559 274.422C669.194 275.716 669.012 276.491 669.012 276.746C669.012 277.038 669.094 277.275 669.258 277.457C669.44 277.639 669.65 277.73 669.887 277.73C670.16 277.73 670.488 277.585 670.871 277.293C671.91 276.473 672.958 275.306 674.016 273.793L674.973 274.422C673.733 276.318 672.275 277.913 670.598 279.207C669.358 280.173 668.173 280.656 667.043 280.656C666.296 280.656 665.685 280.438 665.211 280C664.737 279.544 664.5 278.979 664.5 278.305C664.5 277.63 664.728 276.509 665.184 274.941L668.738 262.691C669.322 260.686 669.613 259.428 669.613 258.918C669.613 258.517 669.467 258.189 669.176 257.934C668.902 257.678 668.52 257.551 668.027 257.551C667.626 257.551 666.797 257.651 665.539 257.852V256.785L674.973 255.254ZM680.605 256.785L690.039 255.254L686.102 268.543C689.292 263.092 692.19 259.283 694.797 257.113C696.273 255.874 697.477 255.254 698.406 255.254C699.008 255.254 699.482 255.436 699.828 255.801C700.174 256.147 700.348 256.658 700.348 257.332C700.348 258.535 700.038 259.684 699.418 260.777C698.98 261.598 698.352 262.008 697.531 262.008C697.112 262.008 696.747 261.871 696.438 261.598C696.146 261.324 695.964 260.905 695.891 260.34C695.854 259.993 695.772 259.766 695.645 259.656C695.499 259.51 695.326 259.438 695.125 259.438C694.815 259.438 694.523 259.51 694.25 259.656C693.776 259.911 693.056 260.622 692.09 261.789C690.577 263.576 688.936 265.891 687.168 268.734C686.402 269.938 685.746 271.296 685.199 272.809C684.434 274.887 683.996 276.135 683.887 276.555L683.012 280H678.828L683.887 263.02C684.47 261.051 684.762 259.647 684.762 258.809C684.762 258.48 684.625 258.207 684.352 257.988C683.987 257.697 683.504 257.551 682.902 257.551C682.52 257.551 681.818 257.633 680.797 257.797L680.605 256.785ZM714.047 248.473L711.914 255.91H716.207L715.742 257.633H711.477L706.773 273.766C706.263 275.497 706.008 276.618 706.008 277.129C706.008 277.439 706.081 277.676 706.227 277.84C706.372 278.004 706.546 278.086 706.746 278.086C707.202 278.086 707.803 277.767 708.551 277.129C708.988 276.764 709.964 275.643 711.477 273.766L712.379 274.449C710.702 276.892 709.116 278.615 707.621 279.617C706.6 280.31 705.57 280.656 704.531 280.656C703.729 280.656 703.073 280.41 702.562 279.918C702.052 279.408 701.797 278.76 701.797 277.977C701.797 276.992 702.089 275.488 702.672 273.465L707.238 257.633H703.109L703.383 256.566C705.388 256.02 707.056 255.208 708.387 254.133C709.717 253.039 711.203 251.152 712.844 248.473H714.047ZM721.758 269.691C721.63 270.603 721.566 271.359 721.566 271.961C721.566 273.583 722.141 274.969 723.289 276.117C724.438 277.247 725.832 277.812 727.473 277.812C728.785 277.812 730.043 277.548 731.246 277.02C732.467 276.473 734.272 275.279 736.66 273.438L737.234 274.23C732.914 278.514 728.794 280.656 724.875 280.656C722.214 280.656 720.208 279.818 718.859 278.141C717.51 276.464 716.836 274.613 716.836 272.59C716.836 269.874 717.674 267.094 719.352 264.25C721.029 261.406 723.134 259.201 725.668 257.633C728.202 256.047 730.809 255.254 733.488 255.254C735.421 255.254 736.852 255.646 737.781 256.43C738.711 257.214 739.176 258.143 739.176 259.219C739.176 260.732 738.574 262.181 737.371 263.566C735.785 265.371 733.452 266.829 730.371 267.941C728.329 268.689 725.458 269.272 721.758 269.691ZM721.949 268.352C724.647 268.042 726.844 267.513 728.539 266.766C730.781 265.763 732.458 264.569 733.57 263.184C734.701 261.78 735.266 260.449 735.266 259.191C735.266 258.426 735.02 257.806 734.527 257.332C734.053 256.858 733.37 256.621 732.477 256.621C730.617 256.621 728.639 257.615 726.543 259.602C724.465 261.57 722.934 264.487 721.949 268.352ZM746.641 269.691C746.513 270.603 746.449 271.359 746.449 271.961C746.449 273.583 747.023 274.969 748.172 276.117C749.32 277.247 750.715 277.812 752.355 277.812C753.668 277.812 754.926 277.548 756.129 277.02C757.35 276.473 759.155 275.279 761.543 273.438L762.117 274.23C757.797 278.514 753.677 280.656 749.758 280.656C747.096 280.656 745.091 279.818 743.742 278.141C742.393 276.464 741.719 274.613 741.719 272.59C741.719 269.874 742.557 267.094 744.234 264.25C745.911 261.406 748.017 259.201 750.551 257.633C753.085 256.047 755.691 255.254 758.371 255.254C760.303 255.254 761.734 255.646 762.664 256.43C763.594 257.214 764.059 258.143 764.059 259.219C764.059 260.732 763.457 262.181 762.254 263.566C760.668 265.371 758.335 266.829 755.254 267.941C753.212 268.689 750.341 269.272 746.641 269.691ZM746.832 268.352C749.53 268.042 751.727 267.513 753.422 266.766C755.664 265.763 757.341 264.569 758.453 263.184C759.583 261.78 760.148 260.449 760.148 259.191C760.148 258.426 759.902 257.806 759.41 257.332C758.936 256.858 758.253 256.621 757.359 256.621C755.5 256.621 753.522 257.615 751.426 259.602C749.348 261.57 747.816 264.487 746.832 268.352ZM777.211 255.254L773.574 267.695C776.983 262.609 779.59 259.264 781.395 257.66C783.217 256.056 784.967 255.254 786.645 255.254C787.556 255.254 788.303 255.555 788.887 256.156C789.488 256.758 789.789 257.542 789.789 258.508C789.789 259.602 789.525 261.06 788.996 262.883L785.66 274.395C785.277 275.725 785.086 276.536 785.086 276.828C785.086 277.083 785.159 277.302 785.305 277.484C785.451 277.648 785.605 277.73 785.77 277.73C785.988 277.73 786.253 277.612 786.562 277.375C787.529 276.609 788.586 275.443 789.734 273.875L790.582 274.395C788.887 276.819 787.283 278.551 785.77 279.59C784.712 280.301 783.764 280.656 782.926 280.656C782.251 280.656 781.714 280.447 781.312 280.027C780.911 279.626 780.711 279.079 780.711 278.387C780.711 277.512 781.021 276.008 781.641 273.875L784.812 262.883C785.214 261.516 785.414 260.449 785.414 259.684C785.414 259.319 785.296 259.027 785.059 258.809C784.822 258.572 784.53 258.453 784.184 258.453C783.673 258.453 783.062 258.672 782.352 259.109C781.003 259.93 779.599 261.288 778.141 263.184C776.682 265.061 775.142 267.467 773.52 270.402C772.663 271.952 771.952 273.647 771.387 275.488L770.02 280H765.918L770.895 262.883C771.478 260.823 771.77 259.583 771.77 259.164C771.77 258.763 771.605 258.417 771.277 258.125C770.967 257.815 770.576 257.66 770.102 257.66C769.883 257.66 769.5 257.697 768.953 257.77L767.914 257.934L767.75 256.949L777.211 255.254ZM830.121 280L824.188 261.98C822.802 261.999 821.38 261.862 819.922 261.57L816.723 272.781C816.303 274.24 816.094 275.47 816.094 276.473C816.094 277.238 816.358 277.84 816.887 278.277C817.288 278.605 818.382 278.842 820.168 278.988L819.922 280H805.566L805.867 278.988C807.216 278.934 808.128 278.797 808.602 278.578C809.349 278.268 809.896 277.849 810.242 277.32C810.826 276.464 811.436 274.951 812.074 272.781L818.555 250.387C818.992 248.892 819.211 247.734 819.211 246.914C819.211 246.076 818.865 245.365 818.172 244.781C817.497 244.198 816.522 243.915 815.246 243.934L815.574 242.922H827.66C831.707 242.922 834.624 243.688 836.41 245.219C838.197 246.75 839.09 248.764 839.09 251.262C839.09 253.65 838.169 255.837 836.328 257.824C834.505 259.793 831.999 261.042 828.809 261.57L832.418 272.426C833.293 275.087 834.168 276.819 835.043 277.621C835.918 278.423 837.331 278.879 839.281 278.988L838.98 280H830.121ZM820.387 260.012C821.553 260.176 822.592 260.258 823.504 260.258C826.639 260.258 829.118 259.392 830.941 257.66C832.764 255.91 833.676 253.741 833.676 251.152C833.676 249.129 833.102 247.579 831.953 246.504C830.823 245.428 829.118 244.891 826.84 244.891C826.257 244.891 825.564 244.964 824.762 245.109L820.387 260.012ZM866.98 263.812C866.98 266.547 866.251 269.254 864.793 271.934C863.353 274.613 861.339 276.737 858.75 278.305C856.161 279.872 853.646 280.656 851.203 280.656C848.706 280.656 846.664 279.863 845.078 278.277C843.51 276.673 842.727 274.604 842.727 272.07C842.727 269.391 843.492 266.702 845.023 264.004C846.573 261.306 848.633 259.173 851.203 257.605C853.792 256.038 856.289 255.254 858.695 255.254C861.102 255.254 863.079 256.047 864.629 257.633C866.197 259.219 866.98 261.279 866.98 263.812ZM862.441 261.926C862.441 260.23 862.022 258.936 861.184 258.043C860.363 257.132 859.297 256.676 857.984 256.676C855.305 256.676 852.835 258.599 850.574 262.445C848.332 266.273 847.211 270.083 847.211 273.875C847.211 275.607 847.648 276.947 848.523 277.895C849.398 278.824 850.501 279.289 851.832 279.289C854.402 279.289 856.809 277.384 859.051 273.574C861.311 269.746 862.441 265.863 862.441 261.926ZM895.363 255.254L890.031 273.793L889.43 276.281C889.375 276.518 889.348 276.719 889.348 276.883C889.348 277.174 889.439 277.43 889.621 277.648C889.767 277.812 889.949 277.895 890.168 277.895C890.405 277.895 890.715 277.749 891.098 277.457C891.809 276.928 892.757 275.835 893.941 274.176L894.871 274.832C893.613 276.728 892.319 278.177 890.988 279.18C889.658 280.164 888.427 280.656 887.297 280.656C886.513 280.656 885.921 280.456 885.52 280.055C885.137 279.672 884.945 279.107 884.945 278.359C884.945 277.466 885.146 276.29 885.547 274.832L886.121 272.781C883.733 275.898 881.536 278.077 879.531 279.316C878.091 280.21 876.678 280.656 875.293 280.656C873.962 280.656 872.814 280.109 871.848 279.016C870.882 277.904 870.398 276.382 870.398 274.449C870.398 271.551 871.264 268.497 872.996 265.289C874.746 262.062 876.961 259.483 879.641 257.551C881.737 256.02 883.715 255.254 885.574 255.254C886.686 255.254 887.607 255.546 888.336 256.129C889.083 256.712 889.648 257.678 890.031 259.027L891.016 255.91L895.363 255.254ZM885.629 256.676C884.462 256.676 883.223 257.223 881.91 258.316C880.051 259.866 878.392 262.163 876.934 265.207C875.493 268.251 874.773 271.004 874.773 273.465C874.773 274.704 875.083 275.689 875.703 276.418C876.323 277.129 877.034 277.484 877.836 277.484C879.823 277.484 881.983 276.017 884.316 273.082C887.434 269.181 888.992 265.18 888.992 261.078C888.992 259.529 888.691 258.408 888.09 257.715C887.488 257.022 886.668 256.676 885.629 256.676ZM917.402 255.254L915.734 263.648H914.723C914.632 261.206 914.112 259.428 913.164 258.316C912.216 257.204 911.04 256.648 909.637 256.648C908.507 256.648 907.604 256.958 906.93 257.578C906.273 258.198 905.945 258.945 905.945 259.82C905.945 260.422 906.073 260.996 906.328 261.543C906.602 262.09 907.185 262.855 908.078 263.84C910.448 266.428 911.979 268.379 912.672 269.691C913.365 271.004 913.711 272.243 913.711 273.41C913.711 275.306 912.918 276.992 911.332 278.469C909.764 279.927 907.777 280.656 905.371 280.656C904.059 280.656 902.546 280.346 900.832 279.727C900.23 279.508 899.766 279.398 899.438 279.398C898.617 279.398 897.997 279.818 897.578 280.656H896.566L898.234 271.797H899.246C899.355 274.568 899.93 276.527 900.969 277.676C902.008 278.824 903.43 279.398 905.234 279.398C906.62 279.398 907.714 279.016 908.516 278.25C909.336 277.466 909.746 276.509 909.746 275.379C909.746 274.65 909.6 273.975 909.309 273.355C908.798 272.262 907.723 270.749 906.082 268.816C904.46 266.884 903.411 265.435 902.938 264.469C902.482 263.503 902.254 262.536 902.254 261.57C902.254 259.802 902.892 258.307 904.168 257.086C905.462 255.865 907.121 255.254 909.145 255.254C909.728 255.254 910.257 255.299 910.73 255.391C910.986 255.445 911.578 255.655 912.508 256.02C913.456 256.366 914.085 256.539 914.395 256.539C915.178 256.539 915.835 256.111 916.363 255.254H917.402ZM933.453 248.473L931.32 255.91H935.613L935.148 257.633H930.883L926.18 273.766C925.669 275.497 925.414 276.618 925.414 277.129C925.414 277.439 925.487 277.676 925.633 277.84C925.779 278.004 925.952 278.086 926.152 278.086C926.608 278.086 927.21 277.767 927.957 277.129C928.395 276.764 929.37 275.643 930.883 273.766L931.785 274.449C930.108 276.892 928.522 278.615 927.027 279.617C926.007 280.31 924.977 280.656 923.938 280.656C923.135 280.656 922.479 280.41 921.969 279.918C921.458 279.408 921.203 278.76 921.203 277.977C921.203 276.992 921.495 275.488 922.078 273.465L926.645 257.633H922.516L922.789 256.566C924.794 256.02 926.462 255.208 927.793 254.133C929.124 253.039 930.609 251.152 932.25 248.473H933.453ZM941.164 269.691C941.036 270.603 940.973 271.359 940.973 271.961C940.973 273.583 941.547 274.969 942.695 276.117C943.844 277.247 945.238 277.812 946.879 277.812C948.191 277.812 949.449 277.548 950.652 277.02C951.874 276.473 953.678 275.279 956.066 273.438L956.641 274.23C952.32 278.514 948.201 280.656 944.281 280.656C941.62 280.656 939.615 279.818 938.266 278.141C936.917 276.464 936.242 274.613 936.242 272.59C936.242 269.874 937.081 267.094 938.758 264.25C940.435 261.406 942.54 259.201 945.074 257.633C947.608 256.047 950.215 255.254 952.895 255.254C954.827 255.254 956.258 255.646 957.188 256.43C958.117 257.214 958.582 258.143 958.582 259.219C958.582 260.732 957.98 262.181 956.777 263.566C955.191 265.371 952.858 266.829 949.777 267.941C947.736 268.689 944.865 269.272 941.164 269.691ZM941.355 268.352C944.053 268.042 946.25 267.513 947.945 266.766C950.188 265.763 951.865 264.569 952.977 263.184C954.107 261.78 954.672 260.449 954.672 259.191C954.672 258.426 954.426 257.806 953.934 257.332C953.46 256.858 952.776 256.621 951.883 256.621C950.023 256.621 948.046 257.615 945.949 259.602C943.871 261.57 942.34 264.487 941.355 268.352ZM989.672 241.117L980.266 273.383C979.755 275.133 979.5 276.281 979.5 276.828C979.5 277.01 979.573 277.184 979.719 277.348C979.883 277.512 980.047 277.594 980.211 277.594C980.448 277.594 980.73 277.475 981.059 277.238C981.678 276.801 982.717 275.707 984.176 273.957L985.105 274.531C983.793 276.354 982.462 277.831 981.113 278.961C979.783 280.091 978.534 280.656 977.367 280.656C976.747 280.656 976.237 280.438 975.836 280C975.435 279.562 975.234 278.943 975.234 278.141C975.234 277.102 975.508 275.707 976.055 273.957L977.121 270.566C974.478 274.65 972.072 277.475 969.902 279.043C968.408 280.118 966.977 280.656 965.609 280.656C964.224 280.656 963.012 280.046 961.973 278.824C960.952 277.585 960.441 275.908 960.441 273.793C960.441 271.077 961.307 268.178 963.039 265.098C964.771 262.017 967.059 259.51 969.902 257.578C972.145 256.029 974.204 255.254 976.082 255.254C977.066 255.254 977.914 255.454 978.625 255.855C979.336 256.257 980.038 256.922 980.73 257.852L983.41 248.336C983.611 247.661 983.775 247.124 983.902 246.723C984.121 245.993 984.23 245.392 984.23 244.918C984.23 244.535 984.094 244.216 983.82 243.961C983.438 243.651 982.945 243.496 982.344 243.496C981.924 243.496 981.232 243.56 980.266 243.688V242.676L989.672 241.117ZM979.527 260.531C979.527 259.365 979.19 258.426 978.516 257.715C977.841 257.004 976.984 256.648 975.945 256.648C973.648 256.648 971.251 258.544 968.754 262.336C966.275 266.128 965.035 269.755 965.035 273.219C965.035 274.586 965.336 275.634 965.938 276.363C966.539 277.074 967.259 277.43 968.098 277.43C969.993 277.43 972.372 275.379 975.234 271.277C978.096 267.176 979.527 263.594 979.527 260.531ZM1040.78 242.074L1038.02 254.078H1037.03L1036.92 251.07C1036.83 249.977 1036.62 249.001 1036.29 248.145C1035.96 247.288 1035.47 246.549 1034.82 245.93C1034.16 245.292 1033.33 244.799 1032.33 244.453C1031.33 244.089 1030.21 243.906 1028.99 243.906C1025.73 243.906 1022.88 244.799 1020.43 246.586C1017.32 248.865 1014.87 252.082 1013.11 256.238C1011.65 259.665 1010.92 263.138 1010.92 266.656C1010.92 270.247 1011.97 273.118 1014.06 275.27C1016.16 277.402 1018.88 278.469 1022.24 278.469C1024.77 278.469 1027.02 277.904 1028.99 276.773C1030.98 275.643 1032.82 273.902 1034.52 271.551H1035.8C1033.8 274.741 1031.57 277.092 1029.13 278.605C1026.69 280.1 1023.76 280.848 1020.35 280.848C1017.33 280.848 1014.65 280.219 1012.31 278.961C1009.98 277.685 1008.2 275.898 1006.98 273.602C1005.76 271.305 1005.15 268.835 1005.15 266.191C1005.15 262.145 1006.23 258.207 1008.4 254.379C1010.57 250.551 1013.54 247.543 1017.32 245.355C1021.11 243.168 1024.93 242.074 1028.77 242.074C1030.58 242.074 1032.6 242.503 1034.84 243.359C1035.83 243.724 1036.54 243.906 1036.98 243.906C1037.41 243.906 1037.8 243.815 1038.12 243.633C1038.45 243.451 1039 242.931 1039.77 242.074H1040.78ZM1041.65 256.785L1051.09 255.254L1047.15 268.543C1050.34 263.092 1053.24 259.283 1055.84 257.113C1057.32 255.874 1058.52 255.254 1059.45 255.254C1060.05 255.254 1060.53 255.436 1060.88 255.801C1061.22 256.147 1061.39 256.658 1061.39 257.332C1061.39 258.535 1061.08 259.684 1060.46 260.777C1060.03 261.598 1059.4 262.008 1058.58 262.008C1058.16 262.008 1057.79 261.871 1057.48 261.598C1057.19 261.324 1057.01 260.905 1056.94 260.34C1056.9 259.993 1056.82 259.766 1056.69 259.656C1056.55 259.51 1056.37 259.438 1056.17 259.438C1055.86 259.438 1055.57 259.51 1055.3 259.656C1054.82 259.911 1054.1 260.622 1053.14 261.789C1051.62 263.576 1049.98 265.891 1048.21 268.734C1047.45 269.938 1046.79 271.296 1046.25 272.809C1045.48 274.887 1045.04 276.135 1044.93 276.555L1044.06 280H1039.88L1044.93 263.02C1045.52 261.051 1045.81 259.647 1045.81 258.809C1045.81 258.48 1045.67 258.207 1045.4 257.988C1045.03 257.697 1044.55 257.551 1043.95 257.551C1043.57 257.551 1042.86 257.633 1041.84 257.797L1041.65 256.785ZM1073.07 244.398C1073.84 244.398 1074.48 244.663 1075.01 245.191C1075.54 245.72 1075.8 246.367 1075.8 247.133C1075.8 247.88 1075.53 248.527 1074.98 249.074C1074.46 249.603 1073.82 249.867 1073.07 249.867C1072.32 249.867 1071.68 249.603 1071.13 249.074C1070.6 248.527 1070.34 247.88 1070.34 247.133C1070.34 246.367 1070.6 245.72 1071.13 245.191C1071.66 244.663 1072.3 244.398 1073.07 244.398ZM1073.43 255.254L1068.01 274.422C1067.65 275.716 1067.46 276.491 1067.46 276.746C1067.46 277.038 1067.55 277.275 1067.71 277.457C1067.89 277.639 1068.1 277.73 1068.34 277.73C1068.61 277.73 1068.94 277.585 1069.32 277.293C1070.36 276.473 1071.41 275.306 1072.47 273.793L1073.43 274.422C1072.19 276.318 1070.73 277.913 1069.05 279.207C1067.81 280.173 1066.63 280.656 1065.5 280.656C1064.75 280.656 1064.14 280.438 1063.66 280C1063.19 279.544 1062.95 278.979 1062.95 278.305C1062.95 277.63 1063.18 276.509 1063.64 274.941L1067.19 262.691C1067.77 260.686 1068.07 259.428 1068.07 258.918C1068.07 258.517 1067.92 258.189 1067.63 257.934C1067.36 257.678 1066.97 257.551 1066.48 257.551C1066.08 257.551 1065.25 257.651 1063.99 257.852V256.785L1073.43 255.254ZM1097.76 274.039C1095.87 276.318 1093.95 277.995 1092.02 279.07C1090.09 280.128 1088.05 280.656 1085.89 280.656C1083.31 280.656 1081.28 279.927 1079.82 278.469C1078.38 277.01 1077.66 275.051 1077.66 272.59C1077.66 269.801 1078.44 267.057 1079.99 264.359C1081.56 261.661 1083.65 259.474 1086.28 257.797C1088.92 256.102 1091.51 255.254 1094.04 255.254C1096.03 255.254 1097.52 255.673 1098.5 256.512C1099.48 257.332 1099.98 258.344 1099.98 259.547C1099.98 260.677 1099.63 261.643 1098.94 262.445C1098.43 263.065 1097.8 263.375 1097.05 263.375C1096.49 263.375 1096.01 263.193 1095.63 262.828C1095.26 262.464 1095.08 262.008 1095.08 261.461C1095.08 261.115 1095.15 260.796 1095.27 260.504C1095.42 260.212 1095.7 259.866 1096.12 259.465C1096.56 259.046 1096.82 258.745 1096.91 258.562C1097.01 258.38 1097.05 258.189 1097.05 257.988C1097.05 257.605 1096.88 257.286 1096.53 257.031C1096 256.667 1095.26 256.484 1094.29 256.484C1092.5 256.484 1090.73 257.113 1088.98 258.371C1087.23 259.629 1085.74 261.415 1084.5 263.73C1083.01 266.538 1082.26 269.345 1082.26 272.152C1082.26 274.012 1082.79 275.488 1083.84 276.582C1084.9 277.658 1086.34 278.195 1088.16 278.195C1089.57 278.195 1090.95 277.849 1092.32 277.156C1093.71 276.445 1095.26 275.169 1096.97 273.328L1097.76 274.039ZM1117.04 241.117L1109.27 267.996L1112.39 265.344C1115.8 262.464 1118.01 260.331 1119.04 258.945C1119.36 258.49 1119.53 258.143 1119.53 257.906C1119.53 257.742 1119.47 257.587 1119.36 257.441C1119.25 257.296 1119.04 257.177 1118.71 257.086C1118.4 256.995 1117.84 256.949 1117.04 256.949H1116.08L1116.38 255.91H1128.33L1128.06 256.949C1126.69 257.022 1125.51 257.241 1124.5 257.605C1123.52 257.952 1122.56 258.471 1121.63 259.164C1119.79 260.531 1118.58 261.479 1118 262.008L1115.64 264.086C1116.05 265.398 1116.54 267.23 1117.12 269.582C1118.11 273.483 1118.77 275.798 1119.12 276.527C1119.46 277.257 1119.82 277.621 1120.18 277.621C1120.49 277.621 1120.86 277.466 1121.28 277.156C1122.23 276.464 1123.24 275.361 1124.31 273.848L1125.27 274.531C1123.28 277.029 1121.76 278.678 1120.7 279.48C1119.65 280.264 1118.68 280.656 1117.8 280.656C1117.04 280.656 1116.45 280.355 1116.03 279.754C1115.3 278.678 1114.09 274.44 1112.39 267.039L1108.64 270.293L1105.83 280H1101.56L1110.64 248.801L1111.41 246.148C1111.5 245.693 1111.54 245.292 1111.54 244.945C1111.54 244.508 1111.37 244.143 1111.02 243.852C1110.7 243.56 1110.21 243.414 1109.57 243.414C1109.15 243.414 1108.49 243.505 1107.58 243.688V242.73L1117.04 241.117ZM1132.57 269.691C1132.44 270.603 1132.38 271.359 1132.38 271.961C1132.38 273.583 1132.95 274.969 1134.1 276.117C1135.25 277.247 1136.64 277.812 1138.29 277.812C1139.6 277.812 1140.86 277.548 1142.06 277.02C1143.28 276.473 1145.08 275.279 1147.47 273.438L1148.05 274.23C1143.73 278.514 1139.61 280.656 1135.69 280.656C1133.03 280.656 1131.02 279.818 1129.67 278.141C1128.32 276.464 1127.65 274.613 1127.65 272.59C1127.65 269.874 1128.49 267.094 1130.16 264.25C1131.84 261.406 1133.95 259.201 1136.48 257.633C1139.01 256.047 1141.62 255.254 1144.3 255.254C1146.23 255.254 1147.66 255.646 1148.59 256.43C1149.52 257.214 1149.99 258.143 1149.99 259.219C1149.99 260.732 1149.39 262.181 1148.18 263.566C1146.6 265.371 1144.26 266.829 1141.18 267.941C1139.14 268.689 1136.27 269.272 1132.57 269.691ZM1132.76 268.352C1135.46 268.042 1137.66 267.513 1139.35 266.766C1141.59 265.763 1143.27 264.569 1144.38 263.184C1145.51 261.78 1146.08 260.449 1146.08 259.191C1146.08 258.426 1145.83 257.806 1145.34 257.332C1144.87 256.858 1144.18 256.621 1143.29 256.621C1141.43 256.621 1139.45 257.615 1137.36 259.602C1135.28 261.57 1133.75 264.487 1132.76 268.352ZM1165.33 248.473L1163.2 255.91H1167.49L1167.02 257.633H1162.76L1158.05 273.766C1157.54 275.497 1157.29 276.618 1157.29 277.129C1157.29 277.439 1157.36 277.676 1157.51 277.84C1157.65 278.004 1157.83 278.086 1158.03 278.086C1158.48 278.086 1159.08 277.767 1159.83 277.129C1160.27 276.764 1161.24 275.643 1162.76 273.766L1163.66 274.449C1161.98 276.892 1160.4 278.615 1158.9 279.617C1157.88 280.31 1156.85 280.656 1155.81 280.656C1155.01 280.656 1154.35 280.41 1153.84 279.918C1153.33 279.408 1153.08 278.76 1153.08 277.977C1153.08 276.992 1153.37 275.488 1153.95 273.465L1158.52 257.633H1154.39L1154.66 256.566C1156.67 256.02 1158.34 255.208 1159.67 254.133C1161 253.039 1162.48 251.152 1164.12 248.473H1165.33ZM1186.68 255.254L1185.02 263.648H1184C1183.91 261.206 1183.39 259.428 1182.45 258.316C1181.5 257.204 1180.32 256.648 1178.92 256.648C1177.79 256.648 1176.89 256.958 1176.21 257.578C1175.55 258.198 1175.23 258.945 1175.23 259.82C1175.23 260.422 1175.35 260.996 1175.61 261.543C1175.88 262.09 1176.47 262.855 1177.36 263.84C1179.73 266.428 1181.26 268.379 1181.95 269.691C1182.65 271.004 1182.99 272.243 1182.99 273.41C1182.99 275.306 1182.2 276.992 1180.61 278.469C1179.05 279.927 1177.06 280.656 1174.65 280.656C1173.34 280.656 1171.83 280.346 1170.11 279.727C1169.51 279.508 1169.05 279.398 1168.72 279.398C1167.9 279.398 1167.28 279.818 1166.86 280.656H1165.85L1167.52 271.797H1168.53C1168.64 274.568 1169.21 276.527 1170.25 277.676C1171.29 278.824 1172.71 279.398 1174.52 279.398C1175.9 279.398 1176.99 279.016 1177.8 278.25C1178.62 277.466 1179.03 276.509 1179.03 275.379C1179.03 274.65 1178.88 273.975 1178.59 273.355C1178.08 272.262 1177 270.749 1175.36 268.816C1173.74 266.884 1172.69 265.435 1172.22 264.469C1171.76 263.503 1171.54 262.536 1171.54 261.57C1171.54 259.802 1172.17 258.307 1173.45 257.086C1174.74 255.865 1176.4 255.254 1178.43 255.254C1179.01 255.254 1179.54 255.299 1180.01 255.391C1180.27 255.445 1180.86 255.655 1181.79 256.02C1182.74 256.366 1183.37 256.539 1183.68 256.539C1184.46 256.539 1185.12 256.111 1185.64 255.254H1186.68Z" fill="black"/>
</svg>
